<svg xmlns="http://www.w3.org/2000/svg" viewBox="0 0 750 500"><g id="freepik--background-complete--inject-72"><path d="M99.11,325.06,86,325.33l-6.66.12c-2.22,0-4.46,0-6.69.05h-.44v-.44l-.05-11.19v-.51h.5l13.24.06c4.41,0,8.83.11,13.24.16h.28v.27c0,1.89-.08,3.78-.13,5.65Zm0,0L99,319.4c0-1.86-.11-3.7-.13-5.53l.27.27c-4.41.05-8.83.16-13.24.16l-13.24.06.5-.49-.06,11.19-.44-.45c2.18,0,4.36,0,6.54.05l6.58.12Z" style="fill:#ebebeb"></path><path d="M84.34,339.17l-13.13.27-6.66.12c-2.22,0-4.46,0-6.69.05h-.45v-.44l0-11.19v-.51h.5l13.24.06c4.41,0,8.82.11,13.24.16h.27V328c0,1.89-.08,3.78-.13,5.65Zm0,0-.14-5.66c0-1.86-.12-3.7-.13-5.53l.27.27c-4.42.05-8.83.16-13.24.16l-13.24.06.5-.49-.06,11.19-.44-.45c2.18,0,4.36,0,6.54,0l6.58.12Z" style="fill:#ebebeb"></path><path d="M312.38,377.62l-13.13.28-6.66.11c-2.22.05-4.46,0-6.69.06h-.44v-.45l-.05-11.19v-.5h.5l13.24.06c4.41,0,8.83.12,13.24.17h.28v.27c0,1.9-.08,3.79-.13,5.65Zm0,0-.14-5.65c-.05-1.87-.11-3.71-.13-5.54l.27.27c-4.41.05-8.83.16-13.24.17l-13.24.06.5-.5-.06,11.19-.44-.45c2.18,0,4.36,0,6.54.06l6.58.11Z" style="fill:#ebebeb"></path><path d="M297.61,391.73l-13.13.28-6.66.11c-2.22.05-4.46,0-6.69.06h-.45v-.45l-.05-11.19V380h.5l13.24.06c4.41,0,8.82.12,13.24.17h.27v.27c0,1.9-.08,3.79-.13,5.65Zm0,0-.14-5.65c-.05-1.87-.12-3.71-.13-5.54l.27.27c-4.42.05-8.83.16-13.24.17l-13.24.06.5-.5-.06,11.19-.44-.45c2.18,0,4.36,0,6.54.06l6.58.11Z" style="fill:#ebebeb"></path><path d="M282.89,377.62l-13.12.28-6.66.11c-2.23.05-4.46,0-6.7.06H256v-.45l-.06-11.19v-.5h.5l13.24.06c4.42,0,8.83.12,13.24.17h.28v.27c0,1.9-.09,3.79-.13,5.65Zm0,0-.14-5.65c0-1.87-.11-3.71-.13-5.54l.27.27c-4.41.05-8.82.16-13.24.17l-13.24.06.5-.5-.05,11.19-.45-.45c2.19,0,4.36,0,6.55.06l6.58.11Z" style="fill:#ebebeb"></path><path d="M692.14,339.17l-13.12.27-6.66.12c-2.23,0-4.47,0-6.7.05h-.44v-.44L665.16,328v-.51h.5l13.24.06c4.42,0,8.83.11,13.24.16h.28V328c0,1.89-.09,3.78-.14,5.65Zm0,0-.14-5.66c0-1.86-.11-3.7-.13-5.53l.27.27c-4.41.05-8.82.16-13.24.16l-13.24.06.5-.49,0,11.19-.45-.45c2.18,0,4.36,0,6.55,0l6.58.12Z" style="fill:#ebebeb"></path><path d="M677.37,65.49l-13.12.27-6.67.12c-2.22,0-4.46,0-6.69.05h-.44v-.45l-.05-11.19v-.51h.5l13.24.06c4.41,0,8.83.11,13.24.16h.28v.27c0,1.9-.08,3.78-.13,5.65Zm0,0-.14-5.66c-.05-1.86-.11-3.7-.13-5.53l.27.27c-4.41,0-8.83.16-13.24.16l-13.24.07.5-.5,0,11.19-.45-.45c2.18,0,4.36,0,6.55.06l6.58.11Z" style="fill:#ebebeb"></path><path d="M692.14,79.6,679,79.87l-6.66.12c-2.23,0-4.47,0-6.7.05h-.44V79.6l-.06-11.19V67.9h.5L678.9,68c4.42,0,8.83.11,13.24.16h.28v.27c0,1.9-.09,3.78-.14,5.65Zm0,0L692,73.94c0-1.86-.11-3.7-.13-5.53l.27.27c-4.41,0-8.82.16-13.24.16l-13.24.07.5-.5,0,11.19-.45-.45c2.18,0,4.36,0,6.55.06l6.58.11Z" style="fill:#ebebeb"></path><path d="M99.11,65.49,86,65.76l-6.66.12c-2.22,0-4.46,0-6.69.05h-.44v-.45L72.13,54.3v-.51h.5l13.24.06c4.41,0,8.83.11,13.24.16h.28v.27c0,1.9-.08,3.78-.13,5.65Zm0,0L99,59.83c0-1.86-.11-3.7-.13-5.53l.27.27c-4.41,0-8.83.16-13.24.16l-13.24.07.5-.5-.06,11.19L72.63,65c2.18,0,4.36,0,6.54.06l6.58.11Z" style="fill:#ebebeb"></path><rect x="61.67" y="278.49" width="104.03" height="143.97" style="fill:#dbdbdb"></rect><rect x="56.63" y="273.15" width="114.11" height="5.34" style="fill:#ebebeb"></rect><rect x="170.74" y="273.15" width="35.89" height="5.34" style="fill:#dbdbdb"></rect><rect x="165.7" y="278.49" width="35.25" height="143.97" style="fill:#ebebeb"></rect><path d="M154.5,345.12H72.87V299H154.5Zm-81.38-.25h81.13V299.24H73.12Z" style="fill:#a6a6a6"></path><rect x="102.29" y="312.47" width="15.89" height="9.13" style="fill:#a6a6a6"></rect><path d="M123,321H106.86v-8H123Zm-15.9-.25h15.65v-7.51H107.11Z" style="fill:#a6a6a6"></path><path d="M154.5,403.08H72.87V357H154.5Zm-81.38-.25h81.13V357.2H73.12Z" style="fill:#a6a6a6"></path><rect x="102.29" y="370.43" width="15.89" height="9.13" style="fill:#a6a6a6"></rect><path d="M123,379H106.86v-8H123Zm-15.9-.25h15.65v-7.51H107.11Z" style="fill:#a6a6a6"></path><path d="M198,167H71.34V80.32H198ZM72.34,166H197V81.32H72.34Z" style="fill:#ebebeb"></path><path d="M81.24,85.91a2.52,2.52,0,1,1-2.52-2.53A2.52,2.52,0,0,1,81.24,85.91Z" style="fill:#a6a6a6"></path><path d="M91.53,85.91A2.52,2.52,0,1,1,89,83.38,2.52,2.52,0,0,1,91.53,85.91Z" style="fill:#ebebeb"></path><path d="M101.82,85.91a2.52,2.52,0,1,1-2.52-2.53A2.52,2.52,0,0,1,101.82,85.91Z" style="fill:#166765"></path><rect x="71.84" y="90.34" width="125.64" height="1" style="fill:#ebebeb"></rect><line x1="660.63" y1="74.65" x2="660.63" style="fill:none;stroke:#c7c7c7;stroke-miterlimit:10"></line><polygon points="627.92 106.17 630.55 111.95 690.71 111.95 693.33 106.17 667.72 88.44 653.53 88.44 627.92 106.17" style="fill:#ebebeb"></polygon><polygon points="651.75 71.37 653.53 88.44 667.72 88.44 669.5 71.37 651.75 71.37" style="fill:#dbdbdb"></polygon><polygon points="627.92 106.17 630.55 111.96 690.71 111.96 693.34 106.17 627.92 106.17" style="fill:#dbdbdb"></polygon><line x1="590.4" y1="55.99" x2="590.4" style="fill:none;stroke:#c7c7c7;stroke-miterlimit:10"></line><polygon points="557.7 87.52 560.33 93.3 620.49 93.3 623.11 87.52 597.5 69.79 583.31 69.79 557.7 87.52" style="fill:#ebebeb"></polygon><polygon points="581.53 52.71 583.31 69.79 597.5 69.79 599.27 52.71 581.53 52.71" style="fill:#dbdbdb"></polygon><polygon points="557.7 87.52 560.33 93.3 620.49 93.3 623.11 87.52 557.7 87.52" style="fill:#dbdbdb"></polygon><rect x="434.63" y="353.89" width="70.71" height="68.5" style="fill:#dbdbdb"></rect><rect x="505.34" y="353.89" width="36.51" height="68.5" style="fill:#c7c7c7"></rect><polygon points="475.98 370.81 474.49 370.81 473.36 370.81 472.72 369.51 471.82 370.81 470.6 368.13 469.44 370.81 466.13 370.81 464.62 370.81 464.07 369.02 463.56 370.81 462.58 370.81 462.58 353.89 475.98 353.89 475.98 370.81" style="fill:#fff"></polygon><path d="M539.33,418.31q-4.05-7.46-8-15l-7.92-15.06-7.82-15.12q-3.88-7.57-7.7-15.19,4.06,7.45,8,15L523.81,388l7.82,15.12Q535.52,410.7,539.33,418.31Z" style="fill:#dbdbdb"></path><path d="M539.33,358q-3.81,7.62-7.7,15.19l-7.82,15.12-7.92,15.06q-4,7.52-8,15,3.81-7.62,7.7-15.19L523.37,388l7.92-15.06Q535.28,365.43,539.33,358Z" style="fill:#dbdbdb"></path><rect x="520.61" y="370.86" width="49.97" height="51.53" style="fill:#ebebeb"></rect><rect x="570.58" y="370.86" width="25.8" height="51.53" style="fill:#dbdbdb"></rect><path d="M594.61,419.11q-2.86-5.5-5.68-11L583.33,397l-5.53-11.14q-2.74-5.57-5.44-11.18,2.86,5.49,5.68,11l5.6,11.09,5.52,11.13Q591.92,413.5,594.61,419.11Z" style="fill:#ebebeb"></path><path d="M594.61,374.68q-2.7,5.61-5.45,11.18L583.64,397,578,408.08q-2.82,5.54-5.68,11,2.68-5.62,5.44-11.19l5.53-11.13,5.6-11.09Q591.73,380.18,594.61,374.68Z" style="fill:#ebebeb"></path><rect x="561.74" y="413.64" width="5.55" height="5.55" style="fill:#fff"></rect></g><g id="freepik--Shadow--inject-72"><ellipse cx="609.2" cy="449.1" rx="91.94" ry="13.47" style="fill:#ebebeb"></ellipse></g><g id="freepik--Floor--inject-72"><polygon points="54.95 422.39 134.97 422.15 214.98 422.06 375 421.89 535.02 422.06 615.03 422.15 695.05 422.39 615.03 422.64 535.02 422.73 375 422.89 214.98 422.73 134.97 422.64 54.95 422.39" style="fill:#263238"></polygon></g><g id="freepik--Window--inject-72"><rect x="109.98" y="60.23" width="530.05" height="304.09" style="fill:#fff"></rect><path d="M640,364.31l-530,.38h-.38v-.38l-.12-304.08v-.5h.5l530,.21h.3v.29Zm0,0-.29-304.08.29.29-530,.21.49-.5-.12,304.08-.37-.37Z" style="fill:#263238"></path><rect x="109.98" y="60.23" width="530.05" height="13.41" style="fill:#455a64"></rect><path d="M120.63,66.93a3.33,3.33,0,1,1-3.32-3.32A3.32,3.32,0,0,1,120.63,66.93Z" style="fill:#c7c7c7"></path><path d="M134.22,66.93a3.33,3.33,0,1,1-3.33-3.32A3.33,3.33,0,0,1,134.22,66.93Z" style="fill:#fff"></path><path d="M147.8,66.93a3.33,3.33,0,1,1-3.33-3.32A3.33,3.33,0,0,1,147.8,66.93Z" style="fill:#166765"></path><path d="M620.42,110l-490.84.24h-.24V91.74h.25L620.42,92h0Zm0,0V92h0l-490.84.24.25-.25v18l-.24-.24Z" style="fill:#c7c7c7"></path><path d="M588.55,98l1.82,3.31L592.22,98h1.14l-2.47,4.24v2.37h-1v-2.39L587.4,98Z" style="fill:#c7c7c7"></path><path d="M598.71,103.64v.93h-4.53V98h4.45v.92h-3.41v1.88h2.95v.86h-2.95v2Z" style="fill:#c7c7c7"></path><path d="M601.74,98h.91l2.61,6.61h-1.1l-.7-1.8h-2.55l-.69,1.8h-1.11Zm1.52,4-1.07-2.84L601.1,102Z" style="fill:#c7c7c7"></path><path d="M606.08,104.57V98H609a1.94,1.94,0,0,1,.83.18,2.22,2.22,0,0,1,.64.49,2.43,2.43,0,0,1,.43.69,2.17,2.17,0,0,1,.15.79,2.3,2.3,0,0,1-.09.64,2.94,2.94,0,0,1-.26.57,2.2,2.2,0,0,1-.41.45,1.59,1.59,0,0,1-.53.28l1.55,2.52h-1.18l-1.44-2.3h-1.52v2.3Zm1-3.22h1.82a.92.92,0,0,0,.41-.1,1.14,1.14,0,0,0,.31-.27,1.36,1.36,0,0,0,.2-.4,1.5,1.5,0,0,0,.08-.47,1.28,1.28,0,0,0-.09-.48,1.49,1.49,0,0,0-.23-.39,1.06,1.06,0,0,0-.34-.26.78.78,0,0,0-.39-.1h-1.77Z" style="fill:#c7c7c7"></path><path d="M142.14,104.18v-6.6h2.78a1.86,1.86,0,0,1,.82.18,2.27,2.27,0,0,1,.65.49,2.19,2.19,0,0,1,.43,2.28,2.15,2.15,0,0,1-.4.69,2.11,2.11,0,0,1-.63.48,1.87,1.87,0,0,1-.82.19h-1.78v2.29Zm1.05-3.22h1.72a.87.87,0,0,0,.4-.09,1,1,0,0,0,.32-.26,1.43,1.43,0,0,0,.2-.39,1.53,1.53,0,0,0,.07-.49,1.37,1.37,0,0,0-.08-.51,1,1,0,0,0-.23-.38.91.91,0,0,0-.34-.25.93.93,0,0,0-.4-.09h-1.66Z" style="fill:#c7c7c7"></path><path d="M147.94,104.18v-6.6h2.88a1.86,1.86,0,0,1,.82.18,2.27,2.27,0,0,1,.65.49,2.2,2.2,0,0,1,.42.69,2.06,2.06,0,0,1,.06,1.43,2.44,2.44,0,0,1-.26.57,2,2,0,0,1-.41.45,1.68,1.68,0,0,1-.53.28l1.56,2.51H152l-1.44-2.29H149v2.29ZM149,101h1.82a.87.87,0,0,0,.4-.09,1,1,0,0,0,.32-.27,1.66,1.66,0,0,0,.2-.4,1.5,1.5,0,0,0,.08-.47,1.3,1.3,0,0,0-.33-.87,1.09,1.09,0,0,0-.33-.27.93.93,0,0,0-.4-.09H149Z" style="fill:#c7c7c7"></path><path d="M156.84,104.23a2.9,2.9,0,0,1-1.29-.28,3.12,3.12,0,0,1-1-.76,3.53,3.53,0,0,1-.65-1.07,3.57,3.57,0,0,1-.22-1.24,3.45,3.45,0,0,1,.24-1.27,3.55,3.55,0,0,1,.66-1.07,3.38,3.38,0,0,1,1-.74,3,3,0,0,1,1.27-.27,2.91,2.91,0,0,1,1.29.29,3.3,3.3,0,0,1,1,.77,3.76,3.76,0,0,1,.64,1.07,3.52,3.52,0,0,1,.23,1.23,3.36,3.36,0,0,1-.24,1.26A3.34,3.34,0,0,1,158.1,104,3,3,0,0,1,156.84,104.23Zm-2.1-3.35a2.74,2.74,0,0,0,.15.9,2.66,2.66,0,0,0,.42.78,2,2,0,0,0,.67.53,1.92,1.92,0,0,0,.87.2,1.83,1.83,0,0,0,.89-.21,2.07,2.07,0,0,0,.66-.55,2.64,2.64,0,0,0,.41-.78,2.82,2.82,0,0,0,.13-.87,2.75,2.75,0,0,0-.14-.91,2.27,2.27,0,0,0-.43-.76,2,2,0,0,0-.66-.53,1.88,1.88,0,0,0-.86-.2,1.86,1.86,0,0,0-.89.21,2.17,2.17,0,0,0-.66.54,2.61,2.61,0,0,0-.42.77A2.94,2.94,0,0,0,154.74,100.88Z" style="fill:#c7c7c7"></path><path d="M160.37,103a1.59,1.59,0,0,0,.47.22,2.2,2.2,0,0,0,.71.11,1.28,1.28,0,0,0,.69-.16,1,1,0,0,0,.39-.45,2.25,2.25,0,0,0,.17-.76c0-.3,0-.65,0-1V97.58h1.05v3.36a11.37,11.37,0,0,1-.08,1.37,2.88,2.88,0,0,1-.31,1,1.66,1.66,0,0,1-.71.68,2.62,2.62,0,0,1-1.25.25,2.46,2.46,0,0,1-1.43-.41Z" style="fill:#c7c7c7"></path><path d="M169.84,103.26v.92h-4.53v-6.6h4.45v.92h-3.41v1.88h3v.86h-3v2Z" style="fill:#c7c7c7"></path><path d="M170.37,100.83a3.5,3.5,0,0,1,.21-1.18,3.08,3.08,0,0,1,.63-1.06,3.07,3.07,0,0,1,2.36-1,2.83,2.83,0,0,1,1.54.4,2.62,2.62,0,0,1,1,1l-.82.55a1.67,1.67,0,0,0-.33-.5,1.65,1.65,0,0,0-.43-.33,1.78,1.78,0,0,0-.49-.17,2.61,2.61,0,0,0-.48,0,1.88,1.88,0,0,0-.91.21,2.07,2.07,0,0,0-.66.55,2.69,2.69,0,0,0-.4.77,2.9,2.9,0,0,0-.13.86,2.58,2.58,0,0,0,.16.92,2.34,2.34,0,0,0,.44.77,2,2,0,0,0,.67.54,1.91,1.91,0,0,0,.86.2,2.2,2.2,0,0,0,.5-.06,1.87,1.87,0,0,0,.49-.2,2,2,0,0,0,.44-.34,1.75,1.75,0,0,0,.33-.49l.86.49a2,2,0,0,1-.44.66,3,3,0,0,1-.65.48,3.62,3.62,0,0,1-.77.3,3.19,3.19,0,0,1-.8.1,2.7,2.7,0,0,1-1.27-.3,3.33,3.33,0,0,1-1-.78,3.54,3.54,0,0,1-.88-2.33Z" style="fill:#c7c7c7"></path><path d="M181.94,98.5h-2.2v5.68h-1.05V98.5h-2.21v-.92h5.46Z" style="fill:#c7c7c7"></path><path d="M189.45,98.5h-2.2v5.68H186.2V98.5H184v-.92h5.46Z" style="fill:#c7c7c7"></path><path d="M190.33,104.18v-6.6h1v6.6Z" style="fill:#c7c7c7"></path><path d="M198.42,104.18V99.43l-2,3.6h-.58l-2-3.6v4.75h-1v-6.6H194l2.19,4,2.19-4h1.11v6.6Z" style="fill:#c7c7c7"></path><path d="M205.49,103.26v.92H201v-6.6h4.45v.92H202v1.88H205v.86H202v2Z" style="fill:#c7c7c7"></path><path d="M206.57,104.18v-6.6h1.05v5.68h3.54v.92Z" style="fill:#c7c7c7"></path><path d="M212,104.18v-6.6h1v6.6Z" style="fill:#c7c7c7"></path><path d="M215.58,99.53v4.65h-1v-6.6h.82l3.78,4.76V97.58h1.05v6.6h-.86Z" style="fill:#c7c7c7"></path><path d="M226.21,103.26v.92h-4.53v-6.6h4.45v.92h-3.41v1.88h2.95v.86h-2.95v2Z" style="fill:#c7c7c7"></path><path d="M136.23,122.38v-3.57l-1.48,2.7h-.43l-1.48-2.7v3.57h-.78v-4.95h.84l1.64,3,1.64-3H137v4.95Z" style="fill:#455a64"></path><path d="M138,118.13v-.84h.77v.84Zm0,4.25v-3.65h.77v3.65Z" style="fill:#455a64"></path><path d="M139.73,117.29h.76v4a.43.43,0,0,0,.11.31.37.37,0,0,0,.29.12l.18,0,.19-.06.11.6a1.8,1.8,0,0,1-.39.12,2.27,2.27,0,0,1-.42,0,.84.84,0,0,1-.61-.22.83.83,0,0,1-.22-.62Z" style="fill:#455a64"></path><path d="M143.47,122.45a1.87,1.87,0,0,1-1.37-.56,1.86,1.86,0,0,1-.38-.6,1.95,1.95,0,0,1,0-1.45,1.91,1.91,0,0,1,.38-.61,2,2,0,0,1,2.15-.41,1.78,1.78,0,0,1,.59.41,1.73,1.73,0,0,1,.37.59,1.9,1.9,0,0,1,.13.71v.16s0,.09,0,.12H142.4a1.24,1.24,0,0,0,.11.44,1.42,1.42,0,0,0,.25.34,1.11,1.11,0,0,0,.34.22,1.09,1.09,0,0,0,.4.07,1.63,1.63,0,0,0,.31,0,1.11,1.11,0,0,0,.27-.12.72.72,0,0,0,.22-.17.87.87,0,0,0,.16-.23l.65.18a1.5,1.5,0,0,1-.62.68A2,2,0,0,1,143.47,122.45Zm1.11-2.17a1.24,1.24,0,0,0-.11-.43,1.17,1.17,0,0,0-.24-.33,1.08,1.08,0,0,0-.34-.21,1.16,1.16,0,0,0-.42-.08,1.06,1.06,0,0,0-.4.08,1.08,1.08,0,0,0-.34.21,1,1,0,0,0-.24.33,1.24,1.24,0,0,0-.11.43Z" style="fill:#455a64"></path><path d="M147.3,122.45a2.94,2.94,0,0,1-.88-.14,2.46,2.46,0,0,1-.75-.41l.31-.49a2.64,2.64,0,0,0,.65.36,1.82,1.82,0,0,0,.65.12.94.94,0,0,0,.54-.13.42.42,0,0,0,.2-.38.34.34,0,0,0-.22-.33,4,4,0,0,0-.7-.23,5.89,5.89,0,0,1-.58-.18,1.36,1.36,0,0,1-.4-.19.67.67,0,0,1-.22-.26.8.8,0,0,1-.08-.36,1.1,1.1,0,0,1,.11-.49,1.09,1.09,0,0,1,.3-.37,1.59,1.59,0,0,1,.45-.23,2,2,0,0,1,.56-.07,2.39,2.39,0,0,1,.77.12,2,2,0,0,1,.63.37l-.32.46a1.72,1.72,0,0,0-1.09-.41,1,1,0,0,0-.49.12.44.44,0,0,0-.2.39.36.36,0,0,0,.05.19.27.27,0,0,0,.13.13,1,1,0,0,0,.25.1,3.72,3.72,0,0,0,.37.1l.64.19a1.8,1.8,0,0,1,.44.21.79.79,0,0,1,.26.29.9.9,0,0,1,.08.39,1,1,0,0,1-.39.83A1.72,1.72,0,0,1,147.3,122.45Z" style="fill:#455a64"></path><path d="M151.46,122.19a3.65,3.65,0,0,1-.4.16,1.67,1.67,0,0,1-.55.09,1.34,1.34,0,0,1-.35,0,.94.94,0,0,1-.28-.15.69.69,0,0,1-.19-.25.94.94,0,0,1-.07-.39v-2.28h-.48v-.59h.48v-1.2h.77v1.2h.79v.59h-.79v2a.37.37,0,0,0,.12.28.4.4,0,0,0,.27.09.81.81,0,0,0,.31-.06l.21-.09Z" style="fill:#455a64"></path><path d="M153.54,122.45a1.78,1.78,0,0,1-1.37-.57,1.68,1.68,0,0,1-.37-.6,1.92,1.92,0,0,1,0-1.44,1.61,1.61,0,0,1,.38-.61,1.78,1.78,0,0,1,.59-.41,2.05,2.05,0,0,1,1.54,0,1.84,1.84,0,0,1,1,1,2.06,2.06,0,0,1,0,1.44,1.73,1.73,0,0,1-.39.6,1.81,1.81,0,0,1-.59.42A1.92,1.92,0,0,1,153.54,122.45Zm-1.09-1.88a1.24,1.24,0,0,0,.09.48,1.09,1.09,0,0,0,.23.39,1,1,0,0,0,.34.26,1.07,1.07,0,0,0,.86,0,1.1,1.1,0,0,0,.35-.26,1.49,1.49,0,0,0,.23-.39,1.53,1.53,0,0,0,.08-.49,1.57,1.57,0,0,0-.08-.49,1.49,1.49,0,0,0-.23-.39,1.1,1.1,0,0,0-.35-.26.91.91,0,0,0-.43-.1,1,1,0,0,0-.42.1,1.14,1.14,0,0,0-.35.27,1.49,1.49,0,0,0-.23.39A1.3,1.3,0,0,0,152.45,120.57Z" style="fill:#455a64"></path><path d="M159.37,122.38h-.76v-2a1.3,1.3,0,0,0-.17-.75.55.55,0,0,0-.48-.24,1,1,0,0,0-.34.06,1.92,1.92,0,0,0-.31.18,1.33,1.33,0,0,0-.26.27,1.16,1.16,0,0,0-.18.35v2.17h-.77v-3.65h.7v.73a1.49,1.49,0,0,1,.61-.58,1.82,1.82,0,0,1,.88-.21,1.07,1.07,0,0,1,.53.12.85.85,0,0,1,.33.32,1.25,1.25,0,0,1,.17.48,2.48,2.48,0,0,1,.05.56Z" style="fill:#455a64"></path><path d="M161.92,122.45a1.92,1.92,0,0,1-.77-.15,1.73,1.73,0,0,1-.6-.41,1.88,1.88,0,0,1-.39-.6,2.09,2.09,0,0,1,0-1.45,1.93,1.93,0,0,1,.39-.61,1.73,1.73,0,0,1,.6-.41,2.08,2.08,0,0,1,1.55,0,1.84,1.84,0,0,1,1.09,1.71.81.81,0,0,1,0,.16s0,.09,0,.12h-2.92a1.24,1.24,0,0,0,.11.44,1.16,1.16,0,0,0,.24.34,1.15,1.15,0,0,0,.35.22,1.05,1.05,0,0,0,.4.07,1.53,1.53,0,0,0,.3,0,1.39,1.39,0,0,0,.28-.12.87.87,0,0,0,.22-.17.83.83,0,0,0,.15-.23l.66.18a1.55,1.55,0,0,1-.62.68A2,2,0,0,1,161.92,122.45Zm1.11-2.17a1.25,1.25,0,0,0-.12-.43,1,1,0,0,0-.24-.33,1,1,0,0,0-.34-.21,1.09,1.09,0,0,0-.82,0,1.08,1.08,0,0,0-.34.21,1.14,1.14,0,0,0-.23.33,1.52,1.52,0,0,0-.12.43Z" style="fill:#455a64"></path><path d="M165.74,122.45a2.93,2.93,0,0,1-.87-.14,2.46,2.46,0,0,1-.75-.41l.3-.49a2.83,2.83,0,0,0,.65.36,1.92,1.92,0,0,0,.66.12.94.94,0,0,0,.54-.13.44.44,0,0,0,.2-.38.36.36,0,0,0-.22-.33,4.37,4.37,0,0,0-.7-.23c-.23-.06-.43-.12-.59-.18a1.66,1.66,0,0,1-.4-.19.77.77,0,0,1-.22-.26.8.8,0,0,1-.07-.36,1.1,1.1,0,0,1,.11-.49,1,1,0,0,1,.3-.37,1.59,1.59,0,0,1,.45-.23,2,2,0,0,1,.56-.07,2.33,2.33,0,0,1,.76.12,2.14,2.14,0,0,1,.64.37l-.33.46a1.72,1.72,0,0,0-1.08-.41.91.91,0,0,0-.49.12.44.44,0,0,0-.2.39.36.36,0,0,0,0,.19.3.3,0,0,0,.14.13.91.91,0,0,0,.24.1l.37.1.64.19a1.89,1.89,0,0,1,.45.21.76.76,0,0,1,.25.29.78.78,0,0,1,.09.39,1,1,0,0,1-.4.83A1.72,1.72,0,0,1,165.74,122.45Z" style="fill:#455a64"></path><path d="M131.08,138.53a1,1,0,0,0,.25.11,1.12,1.12,0,0,0,.38.06.74.74,0,0,0,.36-.08.58.58,0,0,0,.21-.25,1.3,1.3,0,0,0,.1-.4c0-.16,0-.34,0-.56v-1.79H133v1.79a5.6,5.6,0,0,1,0,.74,1.54,1.54,0,0,1-.17.56.88.88,0,0,1-.38.36,1.36,1.36,0,0,1-.66.13,1.32,1.32,0,0,1-.77-.22Z" style="fill:#c7c7c7"></path><path d="M134.3,139.2a1,1,0,0,1-.35-.07.88.88,0,0,1-.28-.17.83.83,0,0,1-.25-.58.73.73,0,0,1,.08-.33.78.78,0,0,1,.22-.26,1.27,1.27,0,0,1,.35-.17,1.58,1.58,0,0,1,.45-.06,2.19,2.19,0,0,1,.36,0l.32.09v-.18a.61.61,0,0,0-.16-.45.68.68,0,0,0-.47-.16,1.15,1.15,0,0,0-.41.08,1.7,1.7,0,0,0-.42.22l-.17-.35a1.88,1.88,0,0,1,1.05-.33,1.2,1.2,0,0,1,.83.27,1,1,0,0,1,.3.78v.94c0,.12,0,.18.14.18v.47l-.14,0h-.11a.35.35,0,0,1-.24-.08.31.31,0,0,1-.11-.2v-.17a1.11,1.11,0,0,1-.43.35A1.31,1.31,0,0,1,134.3,139.2Zm.15-.41a.94.94,0,0,0,.37-.07.65.65,0,0,0,.28-.2.24.24,0,0,0,.1-.19V138a1,1,0,0,0-.29-.08l-.31,0a.9.9,0,0,0-.48.12.41.41,0,0,0-.18.34.4.4,0,0,0,.14.32A.52.52,0,0,0,134.45,138.79Z" style="fill:#c7c7c7"></path><path d="M138.73,139.15h-.54v-1.46a.92.92,0,0,0-.12-.53.4.4,0,0,0-.34-.17.69.69,0,0,0-.24,0,.78.78,0,0,0-.22.12.9.9,0,0,0-.19.2.7.7,0,0,0-.13.24v1.55h-.54v-2.6h.49v.52a1.13,1.13,0,0,1,.43-.41,1.33,1.33,0,0,1,.63-.15.72.72,0,0,1,.38.08.66.66,0,0,1,.24.23.92.92,0,0,1,.12.34,2.6,2.6,0,0,1,0,.4Z" style="fill:#c7c7c7"></path><path d="M142.48,138.65v.5h-1.89v-.5h.7v-1.73a.6.6,0,0,1-.14.13l-.2.12-.24.09-.22,0v-.51a.56.56,0,0,0,.23-.06l.25-.13.22-.16a.4.4,0,0,0,.1-.12h.56v2.34Z" style="fill:#c7c7c7"></path><path d="M144,137.57a1.18,1.18,0,0,1,.46.09,1,1,0,0,1,.36.23,1,1,0,0,1,.25.36,1.33,1.33,0,0,1,.08.45,1.3,1.3,0,0,1-.09.49,1.26,1.26,0,0,1-.27.37,1.38,1.38,0,0,1-.41.24,1.35,1.35,0,0,1-.5.08,1.3,1.3,0,0,1-.68-.17,1.13,1.13,0,0,1-.46-.46l.32-.31a1.13,1.13,0,0,0,.36.33.88.88,0,0,0,.47.13.71.71,0,0,0,.5-.18.66.66,0,0,0,.2-.51.59.59,0,0,0-.05-.27.48.48,0,0,0-.14-.2.6.6,0,0,0-.21-.14.76.76,0,0,0-.27,0,.85.85,0,0,0-.35.08.78.78,0,0,0-.27.24h-.48a.44.44,0,0,0,0-.12c0-.06,0-.15,0-.25s0-.21.07-.33,0-.24.07-.37c.06-.29.12-.62.19-1H145v.5h-1.33l-.18,1a.46.46,0,0,1,.23-.15A.81.81,0,0,1,144,137.57Z" style="fill:#c7c7c7"></path><path d="M197.6,139.15v-2.54l-1,1.92h-.31l-1.05-1.92v2.54h-.56v-3.53h.6l1.16,2.16,1.17-2.16h.59v3.53Z" style="fill:#c7c7c7"></path><path d="M199.55,139.2a1,1,0,0,1-.35-.07.77.77,0,0,1-.46-.43.83.83,0,0,1-.07-.32.73.73,0,0,1,.08-.33.82.82,0,0,1,.23-.26,1.14,1.14,0,0,1,.35-.17,1.51,1.51,0,0,1,.44-.06,2.19,2.19,0,0,1,.36,0l.33.09v-.18a.61.61,0,0,0-.17-.45.67.67,0,0,0-.47-.16,1.15,1.15,0,0,0-.41.08,1.84,1.84,0,0,0-.41.22l-.17-.35a1.85,1.85,0,0,1,1-.33,1.17,1.17,0,0,1,.83.27,1,1,0,0,1,.3.78v.94c0,.12.05.18.14.18v.47l-.13,0h-.11a.37.37,0,0,1-.25-.08.36.36,0,0,1-.11-.2v-.17a1.11,1.11,0,0,1-.43.35A1.27,1.27,0,0,1,199.55,139.2Zm.15-.41a1,1,0,0,0,.38-.07.68.68,0,0,0,.27-.2.26.26,0,0,0,.11-.19V138a1.11,1.11,0,0,0-.3-.08,1.6,1.6,0,0,0-.3,0,.85.85,0,0,0-.48.12.39.39,0,0,0-.19.34.43.43,0,0,0,.14.32A.52.52,0,0,0,199.7,138.79Z" style="fill:#c7c7c7"></path><path d="M203.12,137a1.26,1.26,0,0,0-.56.15.74.74,0,0,0-.35.39v1.59h-.55v-2.6h.51v.58a1.15,1.15,0,0,1,.35-.43.81.81,0,0,1,.46-.17h.14Z" style="fill:#c7c7c7"></path><path d="M204.49,139.15a2.34,2.34,0,0,1,0-.39,1.06,1.06,0,0,1,.12-.34,1.11,1.11,0,0,1,.25-.29,1.78,1.78,0,0,1,.39-.28l.33-.17.27-.16a1.06,1.06,0,0,0,.19-.16.37.37,0,0,0,.07-.2.4.4,0,0,0-.14-.29.57.57,0,0,0-.39-.13.93.93,0,0,0-.25,0l-.2.1a.74.74,0,0,0-.17.12l-.12.14-.35-.41.16-.13a1.28,1.28,0,0,1,.26-.16,2.2,2.2,0,0,1,.34-.13,1.86,1.86,0,0,1,.42-.05,1.4,1.4,0,0,1,.43.06,1,1,0,0,1,.33.18.86.86,0,0,1,.2.26.88.88,0,0,1,.07.32.73.73,0,0,1-.08.33,1.14,1.14,0,0,1-.18.25,1.12,1.12,0,0,1-.24.19L206,138l-.23.12a1.35,1.35,0,0,0-.26.15,1.37,1.37,0,0,0-.22.19.49.49,0,0,0-.14.21h1.64v.5Z" style="fill:#c7c7c7"></path><path d="M208.43,137.57a1.14,1.14,0,0,1,.46.09,1.1,1.1,0,0,1,.37.23,1.19,1.19,0,0,1,.23,1.3,1,1,0,0,1-.27.37,1.22,1.22,0,0,1-.4.24,1.38,1.38,0,0,1-.5.08,1.33,1.33,0,0,1-.69-.17,1.2,1.2,0,0,1-.46-.46l.33-.31a1,1,0,0,0,.36.33.84.84,0,0,0,.46.13.72.72,0,0,0,.51-.18.69.69,0,0,0,.2-.51.76.76,0,0,0-.05-.27.62.62,0,0,0-.15-.2.6.6,0,0,0-.21-.14.75.75,0,0,0-.26,0,.82.82,0,0,0-.35.08.78.78,0,0,0-.27.24h-.48s0-.05,0-.12,0-.15.05-.25,0-.21.06-.33.05-.24.08-.37c.05-.29.12-.62.19-1h1.72v.5h-1.32l-.18,1a.44.44,0,0,1,.22-.15A.88.88,0,0,1,208.43,137.57Z" style="fill:#c7c7c7"></path><path d="M270.9,139.15v-2.54l-1,1.92h-.31l-1.05-1.92v2.54h-.56v-3.53h.6l1.16,2.16,1.17-2.16h.59v3.53Z" style="fill:#c7c7c7"></path><path d="M272.85,139.2a1,1,0,0,1-.35-.07.77.77,0,0,1-.52-.75.72.72,0,0,1,.07-.33.82.82,0,0,1,.23-.26,1.14,1.14,0,0,1,.35-.17,1.51,1.51,0,0,1,.44-.06,2.19,2.19,0,0,1,.36,0l.33.09v-.18a.61.61,0,0,0-.17-.45.67.67,0,0,0-.47-.16,1.19,1.19,0,0,0-.41.08,1.84,1.84,0,0,0-.41.22l-.17-.35a1.85,1.85,0,0,1,1-.33,1.17,1.17,0,0,1,.83.27,1,1,0,0,1,.3.78v.94q0,.18.15.18v.47l-.14,0h-.11a.37.37,0,0,1-.25-.08.3.3,0,0,1-.1-.2l0-.17a1,1,0,0,1-.43.35A1.27,1.27,0,0,1,272.85,139.2Zm.15-.41a1,1,0,0,0,.38-.07.62.62,0,0,0,.27-.2.26.26,0,0,0,.11-.19V138a1,1,0,0,0-.3-.08,1.53,1.53,0,0,0-.3,0,.85.85,0,0,0-.48.12.39.39,0,0,0-.19.34.41.41,0,0,0,.15.32A.48.48,0,0,0,273,138.79Z" style="fill:#c7c7c7"></path><path d="M275,139.76l.14,0h.12a.2.2,0,0,0,.11,0s.06,0,.1-.09.06-.12.1-.2l.12-.32-1.07-2.6h.57l.8,2.11.71-2.11h.52l-1.18,3.2a.77.77,0,0,1-.78.52h-.12l-.14,0Z" style="fill:#c7c7c7"></path><path d="M281.12,138.13a.88.88,0,0,1-.1.43,1.27,1.27,0,0,1-.27.34,1.39,1.39,0,0,1-.4.21,1.62,1.62,0,0,1-.49.08,1.3,1.3,0,0,1-.49-.09,1.18,1.18,0,0,1-.4-.22,1,1,0,0,1-.37-.78.67.67,0,0,1,.06-.28.89.89,0,0,1,.14-.25.86.86,0,0,1,.2-.18,1.2,1.2,0,0,1,.21-.13.89.89,0,0,1-.34-.27.64.64,0,0,1-.15-.42.75.75,0,0,1,.11-.4,1,1,0,0,1,.27-.3,1.11,1.11,0,0,1,.36-.18,1.16,1.16,0,0,1,.4-.07,1.18,1.18,0,0,1,.41.07,1.16,1.16,0,0,1,.37.18.94.94,0,0,1,.27.29.78.78,0,0,1,.11.41.63.63,0,0,1-.15.41.88.88,0,0,1-.36.28,1.09,1.09,0,0,1,.23.14.9.9,0,0,1,.2.19.75.75,0,0,1,.13.25A.65.65,0,0,1,281.12,138.13Zm-.55,0a.51.51,0,0,0-.06-.25.49.49,0,0,0-.16-.19.57.57,0,0,0-.23-.12.78.78,0,0,0-.74.12,1,1,0,0,0-.16.19.54.54,0,0,0-.06.25.6.6,0,0,0,.23.44.74.74,0,0,0,.48.16.75.75,0,0,0,.26,0,.78.78,0,0,0,.22-.12.7.7,0,0,0,.16-.19A.54.54,0,0,0,280.57,138.09Zm-1.3-1.5a.37.37,0,0,0,.06.21.4.4,0,0,0,.14.15.56.56,0,0,0,.19.09.69.69,0,0,0,.2,0,.76.76,0,0,0,.21,0,.54.54,0,0,0,.33-.25.37.37,0,0,0,.06-.21.46.46,0,0,0,0-.2.57.57,0,0,0-.13-.14.5.5,0,0,0-.19-.1.85.85,0,0,0-.23,0,.78.78,0,0,0-.22,0,.85.85,0,0,0-.19.1.47.47,0,0,0-.13.15A.46.46,0,0,0,279.27,136.59Z" style="fill:#c7c7c7"></path><path d="M383.88,138.53a1.22,1.22,0,0,0,.25.11,1.12,1.12,0,0,0,.38.06.74.74,0,0,0,.36-.08.47.47,0,0,0,.21-.25,1.3,1.3,0,0,0,.1-.4c0-.16,0-.34,0-.56v-1.79h.56v1.79a5.6,5.6,0,0,1,0,.74,1.54,1.54,0,0,1-.17.56.86.86,0,0,1-.37.36,1.43,1.43,0,0,1-.67.13,1.26,1.26,0,0,1-.76-.22Z" style="fill:#c7c7c7"></path><path d="M387.24,139.2a.72.72,0,0,1-.61-.27,1.26,1.26,0,0,1-.21-.79v-1.59H387V138c0,.47.16.7.49.7a.79.79,0,0,0,.44-.14,1,1,0,0,0,.33-.42v-1.62h.54v1.95a.21.21,0,0,0,0,.13.14.14,0,0,0,.12.05v.47l-.14,0h-.1a.45.45,0,0,1-.26-.08.26.26,0,0,1-.1-.21v-.26a1.19,1.19,0,0,1-.46.43A1.23,1.23,0,0,1,387.24,139.2Z" style="fill:#c7c7c7"></path><path d="M389.47,135.52H390v2.88a.31.31,0,0,0,.07.22.25.25,0,0,0,.21.08.32.32,0,0,0,.13,0l.13,0,.08.43a1.58,1.58,0,0,1-.28.08,1.81,1.81,0,0,1-.29,0,.61.61,0,0,1-.44-.16.57.57,0,0,1-.16-.44Z" style="fill:#c7c7c7"></path><path d="M391.9,139.15a1.61,1.61,0,0,1,0-.39,1.06,1.06,0,0,1,.12-.34,1.28,1.28,0,0,1,.24-.29,2.16,2.16,0,0,1,.4-.28l.33-.17.27-.16a1.06,1.06,0,0,0,.19-.16.36.36,0,0,0,.06-.2.39.39,0,0,0-.13-.29.58.58,0,0,0-.4-.13.93.93,0,0,0-.24,0l-.2.1a.74.74,0,0,0-.17.12l-.12.14-.35-.41.16-.13a1.28,1.28,0,0,1,.26-.16,2.2,2.2,0,0,1,.34-.13,1.86,1.86,0,0,1,.42-.05,1.4,1.4,0,0,1,.43.06,1,1,0,0,1,.33.18.86.86,0,0,1,.2.26.88.88,0,0,1,.07.32.73.73,0,0,1-.08.33,1.14,1.14,0,0,1-.18.25,1.12,1.12,0,0,1-.24.19l-.24.13-.23.12a1.35,1.35,0,0,0-.26.15,1.37,1.37,0,0,0-.22.19.41.41,0,0,0-.14.21h1.64v.5Z" style="fill:#c7c7c7"></path><path d="M397.22,137.69a1.64,1.64,0,0,1-.1.6,1.38,1.38,0,0,1-.26.48,1.31,1.31,0,0,1-.4.31,1.13,1.13,0,0,1-.51.12,1.06,1.06,0,0,1-.5-.12,1.24,1.24,0,0,1-.41-.31,1.38,1.38,0,0,1-.26-.48,1.85,1.85,0,0,1,0-1.2,1.59,1.59,0,0,1,.26-.48,1.24,1.24,0,0,1,.41-.31,1.06,1.06,0,0,1,.5-.12,1.13,1.13,0,0,1,.51.12,1.31,1.31,0,0,1,.4.31,1.59,1.59,0,0,1,.26.48A1.64,1.64,0,0,1,397.22,137.69Zm-.55,0a1.25,1.25,0,0,0-.06-.4.79.79,0,0,0-.15-.32.73.73,0,0,0-.22-.21.59.59,0,0,0-.29-.07.54.54,0,0,0-.29.07.66.66,0,0,0-.23.21.79.79,0,0,0-.15.32,1.25,1.25,0,0,0,0,.4,1.32,1.32,0,0,0,0,.41.75.75,0,0,0,.15.31.61.61,0,0,0,.52.28.58.58,0,0,0,.51-.28.75.75,0,0,0,.15-.31A1.31,1.31,0,0,0,396.67,137.69Z" style="fill:#c7c7c7"></path><path d="M449.58,136.45a.94.94,0,0,0-.14-.12,1.13,1.13,0,0,0-.22-.11,1.31,1.31,0,0,0-.28-.09,1.55,1.55,0,0,0-.31,0,.88.88,0,0,0-.52.13.45.45,0,0,0-.17.36.33.33,0,0,0,.06.21.47.47,0,0,0,.16.15,1.18,1.18,0,0,0,.27.1l.38.11a4.84,4.84,0,0,1,.49.14,1.52,1.52,0,0,1,.36.19.77.77,0,0,1,.23.28.86.86,0,0,1,.08.41,1,1,0,0,1-.1.46.76.76,0,0,1-.28.31.91.91,0,0,1-.4.18,2.1,2.1,0,0,1-.51.06,2.53,2.53,0,0,1-.77-.12,2.11,2.11,0,0,1-.68-.36l.25-.47.19.14.28.15.35.11a1.74,1.74,0,0,0,.39.05,1,1,0,0,0,.51-.11.38.38,0,0,0,.18-.34.35.35,0,0,0-.07-.23.49.49,0,0,0-.19-.15,1,1,0,0,0-.3-.12l-.41-.12a3.63,3.63,0,0,1-.46-.14,1.35,1.35,0,0,1-.32-.19.73.73,0,0,1-.2-.26.88.88,0,0,1-.06-.35,1.11,1.11,0,0,1,.09-.46,1,1,0,0,1,.68-.54,1.59,1.59,0,0,1,.5-.07,2,2,0,0,1,.66.11,2.49,2.49,0,0,1,.54.28Z" style="fill:#c7c7c7"></path><path d="M451.64,139.2a1.35,1.35,0,0,1-.55-.11,1.3,1.3,0,0,1-.43-.29,1.21,1.21,0,0,1-.27-.43,1.25,1.25,0,0,1-.1-.51,1.27,1.27,0,0,1,.1-.52,1.12,1.12,0,0,1,.27-.43,1.19,1.19,0,0,1,.43-.3,1.38,1.38,0,0,1,.55-.1,1.23,1.23,0,0,1,.55.11,1.22,1.22,0,0,1,.42.29,1.29,1.29,0,0,1,.26.42,1.24,1.24,0,0,1,.1.5s0,.08,0,.11,0,.07,0,.09h-2.08a.94.94,0,0,0,.08.31,1.08,1.08,0,0,0,.18.24.78.78,0,0,0,.24.16.71.71,0,0,0,.29,0l.21,0,.2-.08.16-.13a.91.91,0,0,0,.11-.16l.46.13a1.07,1.07,0,0,1-.44.48A1.43,1.43,0,0,1,451.64,139.2Zm.79-1.55a.75.75,0,0,0-.09-.3.81.81,0,0,0-.17-.24,1,1,0,0,0-.24-.15.93.93,0,0,0-.29-.05.88.88,0,0,0-.29.05.7.7,0,0,0-.24.15.81.81,0,0,0-.17.24.74.74,0,0,0-.08.3Z" style="fill:#c7c7c7"></path><path d="M454.89,139.2a1,1,0,0,1-.56-.15,1.15,1.15,0,0,1-.37-.39v1.54h-.55v-3.65h.48V137a1.18,1.18,0,0,1,.39-.38,1,1,0,0,1,.53-.13,1,1,0,0,1,.49.11,1.24,1.24,0,0,1,.39.29,1.27,1.27,0,0,1,.25.42,1.34,1.34,0,0,1,.1.52,1.5,1.5,0,0,1-.09.52,1.07,1.07,0,0,1-.24.43,1.12,1.12,0,0,1-.36.29A1,1,0,0,1,454.89,139.2Zm-.18-.47a.65.65,0,0,0,.31-.08.79.79,0,0,0,.25-.19,1,1,0,0,0,.15-.29.87.87,0,0,0,.06-.32.77.77,0,0,0-.07-.34.85.85,0,0,0-.16-.28A1,1,0,0,0,455,137a.88.88,0,0,0-.32-.07.85.85,0,0,0-.22,0,1,1,0,0,0-.21.11.93.93,0,0,0-.18.16.54.54,0,0,0-.1.2v.68a.76.76,0,0,0,.13.23,1,1,0,0,0,.17.18l.21.11A.69.69,0,0,0,454.71,138.73Z" style="fill:#c7c7c7"></path><path d="M459.64,138.65v.5h-1.89v-.5h.7v-1.73a.6.6,0,0,1-.14.13l-.2.12-.24.09-.22,0v-.51a.56.56,0,0,0,.23-.06l.25-.13.22-.16a.4.4,0,0,0,.1-.12H459v2.34Z" style="fill:#c7c7c7"></path><path d="M497.91,136.45a.94.94,0,0,0-.14-.12,1.13,1.13,0,0,0-.22-.11,1.31,1.31,0,0,0-.28-.09,1.65,1.65,0,0,0-.31,0,.88.88,0,0,0-.52.13.45.45,0,0,0-.17.36.33.33,0,0,0,.06.21.39.39,0,0,0,.16.15,1.18,1.18,0,0,0,.27.1l.38.11a4.84,4.84,0,0,1,.49.14,1.52,1.52,0,0,1,.36.19.77.77,0,0,1,.23.28.86.86,0,0,1,.08.41,1,1,0,0,1-.1.46.84.84,0,0,1-.28.31.91.91,0,0,1-.4.18,2.1,2.1,0,0,1-.51.06,2.53,2.53,0,0,1-.77-.12,2.11,2.11,0,0,1-.68-.36l.25-.47.19.14.28.15.35.11a1.74,1.74,0,0,0,.39.05,1,1,0,0,0,.51-.11.38.38,0,0,0,.18-.34.35.35,0,0,0-.07-.23.49.49,0,0,0-.19-.15,1,1,0,0,0-.3-.12l-.41-.12a3.63,3.63,0,0,1-.46-.14,1.35,1.35,0,0,1-.32-.19.73.73,0,0,1-.2-.26.87.87,0,0,1-.07-.35,1.11,1.11,0,0,1,.1-.46,1,1,0,0,1,.68-.54,1.59,1.59,0,0,1,.5-.07,2,2,0,0,1,.66.11,2.49,2.49,0,0,1,.54.28Z" style="fill:#c7c7c7"></path><path d="M500,139.2a1.35,1.35,0,0,1-.55-.11,1.3,1.3,0,0,1-.43-.29,1.21,1.21,0,0,1-.27-.43,1.25,1.25,0,0,1-.1-.51,1.27,1.27,0,0,1,.1-.52,1.12,1.12,0,0,1,.27-.43,1.19,1.19,0,0,1,.43-.3,1.38,1.38,0,0,1,.55-.1,1.26,1.26,0,0,1,.55.11,1.22,1.22,0,0,1,.42.29,1.29,1.29,0,0,1,.26.42,1.43,1.43,0,0,1,.09.5v.11s0,.07,0,.09H499.2a.94.94,0,0,0,.08.31,1.08,1.08,0,0,0,.18.24.78.78,0,0,0,.24.16.69.69,0,0,0,.28,0l.22,0,.2-.08.16-.13a.91.91,0,0,0,.11-.16l.46.13a1.07,1.07,0,0,1-.44.48A1.43,1.43,0,0,1,500,139.2Zm.78-1.55a.74.74,0,0,0-.08-.3.81.81,0,0,0-.17-.24,1,1,0,0,0-.24-.15.93.93,0,0,0-.29-.05.8.8,0,0,0-.54.2,1,1,0,0,0-.16.24.74.74,0,0,0-.08.3Z" style="fill:#c7c7c7"></path><path d="M503.22,139.2a1,1,0,0,1-.56-.15,1.15,1.15,0,0,1-.37-.39v1.54h-.55v-3.65h.48V137a1.18,1.18,0,0,1,.39-.38,1.15,1.15,0,0,1,1,0,1.24,1.24,0,0,1,.39.29,1.27,1.27,0,0,1,.25.42,1.34,1.34,0,0,1,.1.52,1.5,1.5,0,0,1-.09.52,1.07,1.07,0,0,1-.24.43,1.12,1.12,0,0,1-.36.29A1,1,0,0,1,503.22,139.2Zm-.18-.47a.76.76,0,0,0,.55-.27,1,1,0,0,0,.16-.29.87.87,0,0,0,.06-.32.94.94,0,0,0-.07-.34.73.73,0,0,0-.17-.28.79.79,0,0,0-.25-.19A.88.88,0,0,0,503,137a.85.85,0,0,0-.22,0,1,1,0,0,0-.21.11.93.93,0,0,0-.18.16.54.54,0,0,0-.1.2v.68a.76.76,0,0,0,.13.23,1,1,0,0,0,.17.18l.21.11A.69.69,0,0,0,503,138.73Z" style="fill:#c7c7c7"></path><path d="M508,138.65v.5h-1.89v-.5h.7v-1.73a.6.6,0,0,1-.14.13l-.21.12-.23.09-.22,0v-.51a.6.6,0,0,0,.23-.06l.25-.13.22-.16a.4.4,0,0,0,.1-.12h.56v2.34Z" style="fill:#c7c7c7"></path><path d="M509.85,136.75h-1.71v-.5h2.57L509,139.78h-.62Z" style="fill:#c7c7c7"></path><path d="M563.53,136.66v2.49H563v-3.53h.44l2,2.54v-2.53H566v3.52h-.47Z" style="fill:#c7c7c7"></path><path d="M567.84,139.2a1.38,1.38,0,0,1-.55-.11,1.19,1.19,0,0,1-.42-.3,1.12,1.12,0,0,1-.27-.43,1.49,1.49,0,0,1,0-1,1.12,1.12,0,0,1,.27-.43,1.37,1.37,0,0,1,.42-.29,1.26,1.26,0,0,1,.55-.11,1.23,1.23,0,0,1,.55.11,1.37,1.37,0,0,1,.42.29,1.12,1.12,0,0,1,.27.43,1.35,1.35,0,0,1,0,1,1.12,1.12,0,0,1-.27.43,1.4,1.4,0,0,1-.42.3A1.38,1.38,0,0,1,567.84,139.2Zm-.77-1.34a.93.93,0,0,0,.06.34.85.85,0,0,0,.16.28.64.64,0,0,0,.25.18.6.6,0,0,0,.3.07.67.67,0,0,0,.31-.07.69.69,0,0,0,.24-.18,1,1,0,0,0,.17-.28,1,1,0,0,0,.06-.35.93.93,0,0,0-.06-.34.88.88,0,0,0-.17-.28.72.72,0,0,0-.24-.19.67.67,0,0,0-.31-.07.82.82,0,0,0-.3.07.75.75,0,0,0-.24.19.88.88,0,0,0-.17.28A1,1,0,0,0,567.07,137.86Z" style="fill:#c7c7c7"></path><path d="M570.3,139.15l-1-2.6h.57l.74,2.13.75-2.13h.52l-1,2.6Z" style="fill:#c7c7c7"></path><path d="M575.24,138.65v.5h-1.89v-.5h.7v-1.73a.6.6,0,0,1-.14.13l-.2.12-.24.09-.22,0v-.51a.56.56,0,0,0,.23-.06l.25-.13.22-.16a.4.4,0,0,0,.1-.12h.56v2.34Z" style="fill:#c7c7c7"></path><path d="M576.78,137.57a1.22,1.22,0,0,1,.46.09,1,1,0,0,1,.36.23,1,1,0,0,1,.25.36,1.33,1.33,0,0,1,.08.45,1.3,1.3,0,0,1-.09.49,1.26,1.26,0,0,1-.27.37,1.38,1.38,0,0,1-.41.24,1.35,1.35,0,0,1-.5.08,1.3,1.3,0,0,1-.68-.17,1.13,1.13,0,0,1-.46-.46l.32-.31a1.13,1.13,0,0,0,.36.33.88.88,0,0,0,.47.13.71.71,0,0,0,.5-.18.66.66,0,0,0,.2-.51.76.76,0,0,0,0-.27.48.48,0,0,0-.14-.2.6.6,0,0,0-.21-.14.76.76,0,0,0-.27,0,.85.85,0,0,0-.35.08.78.78,0,0,0-.27.24h-.48l0-.12,0-.25c0-.09,0-.21.07-.33s0-.24.07-.37c.06-.29.12-.62.19-1h1.72v.5H576.4l-.18,1a.46.46,0,0,1,.23-.15A.81.81,0,0,1,576.78,137.57Z" style="fill:#c7c7c7"></path><path d="M606.61,139.15v-3.53h1.25a1.88,1.88,0,0,1,.74.14,1.43,1.43,0,0,1,.54.38,1.73,1.73,0,0,1,.33.56,2.15,2.15,0,0,1,.1.68,2.11,2.11,0,0,1-.12.73,1.52,1.52,0,0,1-.88.91,2,2,0,0,1-.71.13Zm2.4-1.77a1.6,1.6,0,0,0-.08-.51,1,1,0,0,0-.22-.4,1,1,0,0,0-.37-.26,1.21,1.21,0,0,0-.48-.1h-.7v2.54h.7a1.26,1.26,0,0,0,.49-.09,1,1,0,0,0,.36-.27,1.11,1.11,0,0,0,.22-.4A1.7,1.7,0,0,0,609,137.38Z" style="fill:#c7c7c7"></path><path d="M611.27,139.2a1.35,1.35,0,0,1-.55-.11,1.3,1.3,0,0,1-.43-.29,1.21,1.21,0,0,1-.27-.43,1.25,1.25,0,0,1-.1-.51,1.27,1.27,0,0,1,.1-.52,1.12,1.12,0,0,1,.27-.43,1.19,1.19,0,0,1,.43-.3,1.38,1.38,0,0,1,.55-.1,1.23,1.23,0,0,1,.55.11,1.22,1.22,0,0,1,.42.29,1.29,1.29,0,0,1,.26.42,1.44,1.44,0,0,1,.1.5s0,.08,0,.11,0,.07,0,.09H610.5a.94.94,0,0,0,.08.31,1.08,1.08,0,0,0,.18.24.78.78,0,0,0,.24.16.69.69,0,0,0,.28,0l.22,0,.2-.08.16-.13a.91.91,0,0,0,.11-.16l.46.13a1.07,1.07,0,0,1-.44.48A1.43,1.43,0,0,1,611.27,139.2Zm.79-1.55a1,1,0,0,0-.09-.3.81.81,0,0,0-.17-.24,1,1,0,0,0-.24-.15.93.93,0,0,0-.29-.05.8.8,0,0,0-.54.2,1,1,0,0,0-.16.24.74.74,0,0,0-.08.3Z" style="fill:#c7c7c7"></path><path d="M612.87,137.85a1.46,1.46,0,0,1,.1-.52,1.3,1.3,0,0,1,.27-.43,1.37,1.37,0,0,1,.42-.29,1.43,1.43,0,0,1,.56-.1,1.26,1.26,0,0,1,.69.17,1.14,1.14,0,0,1,.43.47l-.53.17a.69.69,0,0,0-.25-.26.7.7,0,0,0-.35-.09.67.67,0,0,0-.31.07.69.69,0,0,0-.24.18,1,1,0,0,0-.17.27,1,1,0,0,0,0,.71.81.81,0,0,0,.17.28.69.69,0,0,0,.24.18.66.66,0,0,0,.3.07.64.64,0,0,0,.2,0,.49.49,0,0,0,.18-.08.58.58,0,0,0,.15-.11.42.42,0,0,0,.09-.14l.53.16a1,1,0,0,1-.43.48,1.37,1.37,0,0,1-.71.19,1.38,1.38,0,0,1-.55-.11,1.5,1.5,0,0,1-.43-.3,1.57,1.57,0,0,1-.27-.43A1.45,1.45,0,0,1,612.87,137.85Z" style="fill:#c7c7c7"></path><path d="M618.93,138.65v.5H617v-.5h.7v-1.73a.92.92,0,0,1-.14.13l-.21.12-.24.09-.21,0v-.51a.6.6,0,0,0,.23-.06l.25-.13.21-.16c.06-.06.1-.09.11-.12h.56v2.34Z" style="fill:#c7c7c7"></path><rect x="131.45" y="129.29" width="476.25" height="0.5" style="fill:#c7c7c7"></rect><polygon points="131.45 132.43 131.45 126.65 134.59 129.54 131.45 132.43" style="fill:#166765"></polygon><polygon points="194.24 132.43 194.24 126.65 197.39 129.54 194.24 132.43" style="fill:#166765"></polygon><polygon points="267.54 132.43 267.54 126.65 270.69 129.54 267.54 132.43" style="fill:#166765"></polygon><polygon points="495.43 132.43 495.43 126.65 498.57 129.54 495.43 132.43" style="fill:#166765"></polygon><polygon points="605.95 132.43 605.95 126.65 609.09 129.54 605.95 132.43" style="fill:#166765"></polygon><polygon points="383.7 132.43 383.7 126.65 386.84 129.54 383.7 132.43" style="fill:#166765"></polygon><polygon points="447.1 132.43 447.1 126.65 450.24 129.54 447.1 132.43" style="fill:#166765"></polygon><polygon points="562.58 132.43 562.58 126.65 565.72 129.54 562.58 132.43" style="fill:#166765"></polygon><rect x="166.81" y="156.77" width="32.91" height="181.84" style="fill:#166765;opacity:0.2"></rect><rect x="201.67" y="156.77" width="32.91" height="181.84" style="fill:#166765;opacity:0.2"></rect><rect x="236.52" y="156.77" width="32.91" height="181.84" style="fill:#166765;opacity:0.2"></rect><rect x="271.38" y="156.77" width="32.91" height="181.84" style="fill:#166765;opacity:0.2"></rect><rect x="306.23" y="156.77" width="32.91" height="181.84" style="fill:#166765;opacity:0.2"></rect><rect x="341.09" y="156.77" width="32.91" height="181.84" style="fill:#166765;opacity:0.2"></rect><rect x="375.95" y="156.77" width="32.91" height="181.84" style="fill:#166765;opacity:0.2"></rect><rect x="410.8" y="156.77" width="32.91" height="181.84" style="fill:#166765;opacity:0.2"></rect><rect x="445.66" y="156.77" width="32.91" height="181.84" style="fill:#166765;opacity:0.2"></rect><rect x="480.51" y="156.77" width="32.91" height="181.84" style="fill:#166765;opacity:0.2"></rect><rect x="515.37" y="156.77" width="32.91" height="181.84" style="fill:#166765;opacity:0.2"></rect><rect x="550.23" y="156.77" width="32.91" height="181.84" style="fill:#166765;opacity:0.2"></rect><path d="M132,168.64a5.24,5.24,0,0,1,.09-1,2.93,2.93,0,0,1,.32-.87A3.18,3.18,0,0,1,133,166a5.58,5.58,0,0,1,1-.71l.85-.45a6.19,6.19,0,0,0,.7-.41,1.89,1.89,0,0,0,.49-.42.82.82,0,0,0,.18-.52,1,1,0,0,0-.36-.74,1.42,1.42,0,0,0-1-.33,2.15,2.15,0,0,0-.64.09,2.87,2.87,0,0,0-.53.25,2.36,2.36,0,0,0-.42.33l-.32.34-.9-1a3.52,3.52,0,0,1,.41-.35,3.7,3.7,0,0,1,.67-.41,4.86,4.86,0,0,1,.89-.33,4.25,4.25,0,0,1,1.1-.13,3.5,3.5,0,0,1,1.11.16,2.57,2.57,0,0,1,.84.44,1.9,1.9,0,0,1,.52.68,2,2,0,0,1,.18.84,1.8,1.8,0,0,1-.19.85,2.66,2.66,0,0,1-.48.66,2.86,2.86,0,0,1-.62.48,5.66,5.66,0,0,1-.62.34l-.61.31a4.46,4.46,0,0,0-.66.4,4,4,0,0,0-.58.48,1.45,1.45,0,0,0-.36.57h4.26v1.27Z" style="fill:#455a64"></path><path d="M145.78,164.87a4.86,4.86,0,0,1-.25,1.56,3.85,3.85,0,0,1-.7,1.24,3.12,3.12,0,0,1-1,.81,3.1,3.1,0,0,1-2.62,0,3,3,0,0,1-1-.81,4,4,0,0,1-.69-1.24,4.86,4.86,0,0,1-.25-1.56,4.92,4.92,0,0,1,.25-1.57,4,4,0,0,1,.69-1.23,3.12,3.12,0,0,1,1-.82,3,3,0,0,1,2.62,0,3.29,3.29,0,0,1,1,.82,3.8,3.8,0,0,1,.7,1.23A4.92,4.92,0,0,1,145.78,164.87Zm-1.45,0a3.9,3.9,0,0,0-.13-1.06,2.5,2.5,0,0,0-.39-.82,1.68,1.68,0,0,0-.59-.54,1.56,1.56,0,0,0-.74-.18,1.65,1.65,0,0,0-.77.18,1.88,1.88,0,0,0-.59.54,2.5,2.5,0,0,0-.39.82,3.9,3.9,0,0,0-.13,1.06,3.82,3.82,0,0,0,.13,1,2.5,2.5,0,0,0,.39.82,1.84,1.84,0,0,0,.59.53,1.66,1.66,0,0,0,.77.19,1.57,1.57,0,0,0,.74-.19,1.65,1.65,0,0,0,.59-.53,2.5,2.5,0,0,0,.39-.82A3.82,3.82,0,0,0,144.33,164.87Z" style="fill:#455a64"></path><path d="M147,168.64a5.24,5.24,0,0,1,.09-1,2.93,2.93,0,0,1,.32-.87A3.72,3.72,0,0,1,148,166a5.58,5.58,0,0,1,1-.71l.85-.45a7.46,7.46,0,0,0,.71-.41,2,2,0,0,0,.48-.42.82.82,0,0,0,.18-.52,1,1,0,0,0-.36-.74,1.42,1.42,0,0,0-1-.33,2.2,2.2,0,0,0-.64.09,2.87,2.87,0,0,0-.53.25,2.69,2.69,0,0,0-.41.33l-.33.34-.9-1a3.52,3.52,0,0,1,.41-.35,4.08,4.08,0,0,1,.67-.41,4.86,4.86,0,0,1,.89-.33,4.25,4.25,0,0,1,1.1-.13,3.5,3.5,0,0,1,1.11.16,2.57,2.57,0,0,1,.84.44,1.9,1.9,0,0,1,.52.68,2,2,0,0,1,.18.84,1.8,1.8,0,0,1-.19.85,2.66,2.66,0,0,1-.48.66,2.86,2.86,0,0,1-.62.48,6.7,6.7,0,0,1-.61.34l-.62.31a5,5,0,0,0-.66.4,4.62,4.62,0,0,0-.58.48,1.45,1.45,0,0,0-.36.57h4.26v1.27Z" style="fill:#455a64"></path><path d="M159.26,167.37v1.27h-4.92v-1.27h1.83v-4.5a1.3,1.3,0,0,1-.36.32,3.47,3.47,0,0,1-.54.31,3.32,3.32,0,0,1-.62.24,2.14,2.14,0,0,1-.56.1v-1.33a1.55,1.55,0,0,0,.6-.15,6,6,0,0,0,.65-.37,4.27,4.27,0,0,0,.56-.41,1,1,0,0,0,.27-.29h1.46v6.08Z" style="fill:#455a64"></path><path d="M141,193h-1.65v4.26h-.79V193h-1.65v-.69H141Z" style="fill:#455a64"></path><path d="M141.79,197.3a1.33,1.33,0,0,1-.49-.09,1.28,1.28,0,0,1-.39-.24,1.19,1.19,0,0,1-.26-.36,1.14,1.14,0,0,1-.09-.46,1,1,0,0,1,.11-.46,1.24,1.24,0,0,1,.32-.37,1.48,1.48,0,0,1,.49-.23,2,2,0,0,1,.62-.09,2.94,2.94,0,0,1,.51.05,2.44,2.44,0,0,1,.45.12v-.25a.82.82,0,0,0-.23-.63.9.9,0,0,0-.66-.23,1.6,1.6,0,0,0-.57.11,3.06,3.06,0,0,0-.59.31l-.23-.49a2.61,2.61,0,0,1,1.46-.47,1.7,1.7,0,0,1,1.17.38,1.42,1.42,0,0,1,.42,1.1v1.32c0,.17.07.25.2.25v.66l-.19,0h-.16a.47.47,0,0,1-.34-.11.48.48,0,0,1-.15-.28l0-.23a1.72,1.72,0,0,1-.61.49A1.77,1.77,0,0,1,141.79,197.3Zm.21-.57a1.35,1.35,0,0,0,.53-.1.93.93,0,0,0,.39-.28.36.36,0,0,0,.14-.27v-.48a2.45,2.45,0,0,0-.41-.12,3.28,3.28,0,0,0-.43,0,1.13,1.13,0,0,0-.67.18.55.55,0,0,0-.27.47.59.59,0,0,0,.21.46A.72.72,0,0,0,142,196.73Z" style="fill:#455a64"></path><path d="M146.08,197.3a2.93,2.93,0,0,1-.87-.14,2.46,2.46,0,0,1-.75-.41l.31-.49a2.59,2.59,0,0,0,.64.36,1.92,1.92,0,0,0,.66.12.94.94,0,0,0,.54-.13.44.44,0,0,0,.2-.38.34.34,0,0,0-.22-.33,4,4,0,0,0-.7-.23c-.23-.06-.42-.12-.59-.18a1.42,1.42,0,0,1-.39-.19.7.7,0,0,1-.23-.26,1,1,0,0,1-.07-.36,1.1,1.1,0,0,1,.11-.49,1,1,0,0,1,.3-.37,1.59,1.59,0,0,1,.45-.23,2,2,0,0,1,.56-.07,2.43,2.43,0,0,1,.77.12,2.09,2.09,0,0,1,.63.37l-.33.46a1.72,1.72,0,0,0-1.08-.41.94.94,0,0,0-.49.12.44.44,0,0,0-.2.39.49.49,0,0,0,0,.19.44.44,0,0,0,.14.13.91.91,0,0,0,.24.1l.38.1c.24.06.46.13.63.19a1.89,1.89,0,0,1,.45.21.73.73,0,0,1,.34.68,1,1,0,0,1-.39.83A1.75,1.75,0,0,1,146.08,197.3Z" style="fill:#455a64"></path><path d="M150.76,197.23l-1.17-1.68-.6.57v1.11h-.77v-5.09H149v3.23l1.67-1.78h.84l-1.42,1.52,1.5,2.12Z" style="fill:#455a64"></path><path d="M156.42,196.54v.69h-2.66v-.69h1V194.1a.72.72,0,0,1-.2.18,2.48,2.48,0,0,1-.29.17,2.19,2.19,0,0,1-.33.12,1,1,0,0,1-.31.06v-.72a.74.74,0,0,0,.32-.09,2,2,0,0,0,.36-.19l.3-.22a.6.6,0,0,0,.15-.16h.79v3.29Z" style="fill:#455a64"></path><path d="M141,211.58h-1.65v4.26h-.79v-4.26h-1.65v-.69H141Z" style="fill:#455a64"></path><path d="M141.79,215.91a1.33,1.33,0,0,1-.49-.09,1,1,0,0,1-.39-.24,1.19,1.19,0,0,1-.26-.36,1.13,1.13,0,0,1-.09-.45,1,1,0,0,1,.11-.47,1.1,1.1,0,0,1,.32-.36,1.49,1.49,0,0,1,.49-.24,2,2,0,0,1,.62-.08,2.92,2.92,0,0,1,.51,0,2.44,2.44,0,0,1,.45.12v-.25a.82.82,0,0,0-.23-.63.9.9,0,0,0-.66-.23,1.6,1.6,0,0,0-.57.11,3.06,3.06,0,0,0-.59.31l-.23-.49a2.61,2.61,0,0,1,1.46-.47,1.7,1.7,0,0,1,1.17.38,1.44,1.44,0,0,1,.42,1.11v1.31c0,.17.07.25.2.26v.65l-.19,0h-.16a.47.47,0,0,1-.34-.12.45.45,0,0,1-.15-.28l0-.23a1.62,1.62,0,0,1-.61.49A1.77,1.77,0,0,1,141.79,215.91Zm.21-.56a1.56,1.56,0,0,0,.53-.1,1.05,1.05,0,0,0,.39-.29.36.36,0,0,0,.14-.26v-.48a1.77,1.77,0,0,0-.41-.12,2.15,2.15,0,0,0-.43,0,1.21,1.21,0,0,0-.67.17.55.55,0,0,0-.27.47.57.57,0,0,0,.21.46A.73.73,0,0,0,142,215.35Z" style="fill:#455a64"></path><path d="M146.08,215.91a2.93,2.93,0,0,1-.87-.14,2.26,2.26,0,0,1-.75-.41l.31-.49a2.59,2.59,0,0,0,.64.36,1.92,1.92,0,0,0,.66.12.94.94,0,0,0,.54-.13.43.43,0,0,0,.2-.38.34.34,0,0,0-.22-.33,4,4,0,0,0-.7-.23c-.23-.06-.42-.12-.59-.18a1.42,1.42,0,0,1-.39-.19.7.7,0,0,1-.23-.26,1,1,0,0,1-.07-.35,1.12,1.12,0,0,1,.11-.5,1.07,1.07,0,0,1,.3-.37,1.35,1.35,0,0,1,.45-.22,2,2,0,0,1,.56-.08,2.19,2.19,0,0,1,.77.13,1.88,1.88,0,0,1,.63.36l-.33.46a1.72,1.72,0,0,0-1.08-.41.94.94,0,0,0-.49.13.42.42,0,0,0-.2.38.49.49,0,0,0,0,.19.35.35,0,0,0,.14.13.9.9,0,0,0,.24.11l.38.1c.24.06.46.12.63.18a1.89,1.89,0,0,1,.45.21.89.89,0,0,1,.26.29.93.93,0,0,1,.08.39,1,1,0,0,1-.39.83A1.75,1.75,0,0,1,146.08,215.91Z" style="fill:#455a64"></path><path d="M150.76,215.84l-1.17-1.68-.6.57v1.11h-.77v-5.09H149V214l1.67-1.78h.84l-1.42,1.53,1.5,2.11Z" style="fill:#455a64"></path><path d="M153.58,215.84a3,3,0,0,1,0-.54,1.48,1.48,0,0,1,.18-.47,1.65,1.65,0,0,1,.34-.42,3,3,0,0,1,.56-.39l.46-.24.38-.22a1.51,1.51,0,0,0,.26-.23.43.43,0,0,0,.1-.29.58.58,0,0,0-.19-.4.8.8,0,0,0-.56-.18.93.93,0,0,0-.34.06,1.28,1.28,0,0,0-.29.13,1,1,0,0,0-.23.18l-.17.19-.49-.57.22-.19a2,2,0,0,1,.36-.22,2.79,2.79,0,0,1,.49-.18,2.22,2.22,0,0,1,.59-.07,1.85,1.85,0,0,1,.6.09,1.19,1.19,0,0,1,.46.24,1.09,1.09,0,0,1,.28.36,1,1,0,0,1,.1.46,1,1,0,0,1-.11.46,1.78,1.78,0,0,1-.25.36,2,2,0,0,1-.34.26l-.33.18-.34.17a3.35,3.35,0,0,0-.36.21,2.66,2.66,0,0,0-.31.26.79.79,0,0,0-.19.31h2.3v.69Z" style="fill:#455a64"></path><path d="M141,230.19h-1.65v4.26h-.79v-4.26h-1.65v-.69H141Z" style="fill:#455a64"></path><path d="M141.79,234.52a1.33,1.33,0,0,1-.49-.08,1.28,1.28,0,0,1-.39-.24,1.37,1.37,0,0,1-.26-.37,1.13,1.13,0,0,1-.09-.45,1,1,0,0,1,.11-.47,1.1,1.1,0,0,1,.32-.36,1.72,1.72,0,0,1,.49-.24,2.33,2.33,0,0,1,.62-.08,2.92,2.92,0,0,1,.51,0,3.52,3.52,0,0,1,.45.13v-.25a.85.85,0,0,0-.23-.64.89.89,0,0,0-.66-.22,1.41,1.41,0,0,0-.57.11,2.59,2.59,0,0,0-.59.31l-.23-.49a2.54,2.54,0,0,1,1.46-.48,1.65,1.65,0,0,1,1.17.39,1.4,1.4,0,0,1,.42,1.1v1.32c0,.16.07.24.2.25v.65l-.19,0h-.16a.45.45,0,0,1-.49-.4l0-.23a1.53,1.53,0,0,1-.61.49A1.64,1.64,0,0,1,141.79,234.52ZM142,234a1.35,1.35,0,0,0,.53-.1,1,1,0,0,0,.39-.28.4.4,0,0,0,.14-.27v-.48a2.45,2.45,0,0,0-.41-.12,2.15,2.15,0,0,0-.43,0,1.13,1.13,0,0,0-.67.18.54.54,0,0,0-.27.47.57.57,0,0,0,.21.45A.69.69,0,0,0,142,234Z" style="fill:#455a64"></path><path d="M146.08,234.52a2.64,2.64,0,0,1-.87-.14,2.1,2.1,0,0,1-.75-.41l.31-.49a2.59,2.59,0,0,0,.64.36,1.72,1.72,0,0,0,.66.13.94.94,0,0,0,.54-.14.42.42,0,0,0,.2-.37.35.35,0,0,0-.22-.34,5.16,5.16,0,0,0-.7-.23l-.59-.17a1.42,1.42,0,0,1-.39-.2.63.63,0,0,1-.23-.26.87.87,0,0,1-.07-.35,1.15,1.15,0,0,1,.11-.5,1,1,0,0,1,.3-.36,1.37,1.37,0,0,1,.45-.23,2,2,0,0,1,.56-.08,2.19,2.19,0,0,1,.77.13,1.88,1.88,0,0,1,.63.36l-.33.46a1.7,1.7,0,0,0-1.08-.4.94.94,0,0,0-.49.12.43.43,0,0,0-.2.39.58.58,0,0,0,0,.19.44.44,0,0,0,.14.13,1.45,1.45,0,0,0,.24.1l.38.1c.24.06.46.12.63.18a1.89,1.89,0,0,1,.45.21,1,1,0,0,1,.26.29.93.93,0,0,1,.08.39,1,1,0,0,1-.39.83A1.75,1.75,0,0,1,146.08,234.52Z" style="fill:#455a64"></path><path d="M150.76,234.45l-1.17-1.68-.6.58v1.1h-.77v-5.09H149v3.23l1.67-1.78h.84l-1.42,1.53,1.5,2.11Z" style="fill:#455a64"></path><path d="M155.88,232.81a1.38,1.38,0,0,1,.4.15,1,1,0,0,1,.3.27,1.1,1.1,0,0,1,.2.37,1.33,1.33,0,0,1,.07.45,1.28,1.28,0,0,1-.47,1,1.52,1.52,0,0,1-.55.29,2.55,2.55,0,0,1-1.65-.08,1.64,1.64,0,0,1-.65-.54l.47-.53a1.21,1.21,0,0,0,.43.41,1.48,1.48,0,0,0,.67.14,1.13,1.13,0,0,0,.71-.19.72.72,0,0,0,.24-.59.75.75,0,0,0-.28-.63,1.22,1.22,0,0,0-.82-.23h-.19v-.6H155a1.1,1.1,0,0,0,.72-.22.7.7,0,0,0,.25-.56.55.55,0,0,0-.22-.49,1,1,0,0,0-.58-.16,1.18,1.18,0,0,0-.63.16,1.14,1.14,0,0,0-.43.44l-.48-.53a1,1,0,0,1,.26-.3,2.45,2.45,0,0,1,.38-.24,1.9,1.9,0,0,1,.46-.15,2.24,2.24,0,0,1,.52-.05,2.06,2.06,0,0,1,.62.09,1.51,1.51,0,0,1,.49.25,1.09,1.09,0,0,1,.43.9,1.34,1.34,0,0,1-.06.4,1.83,1.83,0,0,1-.18.34,1,1,0,0,1-.28.25A.88.88,0,0,1,155.88,232.81Z" style="fill:#455a64"></path><path d="M141,248.8h-1.65v4.27h-.79V248.8h-1.65v-.69H141Z" style="fill:#455a64"></path><path d="M141.79,253.14a1.33,1.33,0,0,1-.49-.09,1.28,1.28,0,0,1-.39-.24,1.19,1.19,0,0,1-.26-.36,1.14,1.14,0,0,1-.09-.46,1,1,0,0,1,.11-.46,1.13,1.13,0,0,1,.32-.37,1.48,1.48,0,0,1,.49-.23,2,2,0,0,1,.62-.09,2.94,2.94,0,0,1,.51,0,2.44,2.44,0,0,1,.45.12v-.25a.82.82,0,0,0-.23-.63.9.9,0,0,0-.66-.23,1.6,1.6,0,0,0-.57.11,2.59,2.59,0,0,0-.59.31l-.23-.49a2.53,2.53,0,0,1,1.46-.47,1.65,1.65,0,0,1,1.17.38,1.42,1.42,0,0,1,.42,1.1v1.32c0,.16.07.25.2.25v.66l-.19,0h-.16a.51.51,0,0,1-.34-.11.48.48,0,0,1-.15-.29l0-.23a1.64,1.64,0,0,1-.61.5A1.77,1.77,0,0,1,141.79,253.14Zm.21-.57a1.35,1.35,0,0,0,.53-.1,1,1,0,0,0,.39-.28.38.38,0,0,0,.14-.27v-.48a2.45,2.45,0,0,0-.41-.12,3.28,3.28,0,0,0-.43,0,1.13,1.13,0,0,0-.67.18.54.54,0,0,0-.27.47.6.6,0,0,0,.21.46A.72.72,0,0,0,142,252.57Z" style="fill:#455a64"></path><path d="M146.08,253.14a2.65,2.65,0,0,1-.87-.15,2.24,2.24,0,0,1-.75-.4l.31-.49a2.59,2.59,0,0,0,.64.36,1.92,1.92,0,0,0,.66.12,1,1,0,0,0,.54-.13.44.44,0,0,0,.2-.38.35.35,0,0,0-.22-.34,7.15,7.15,0,0,0-.7-.23c-.23-.06-.42-.11-.59-.17a1.42,1.42,0,0,1-.39-.2.68.68,0,0,1-.23-.25,1,1,0,0,1-.07-.36,1.07,1.07,0,0,1,.11-.49,1,1,0,0,1,.3-.37,1.37,1.37,0,0,1,.45-.23,2,2,0,0,1,.56-.07,2.43,2.43,0,0,1,.77.12,2.07,2.07,0,0,1,.63.36l-.33.46a1.7,1.7,0,0,0-1.08-.4.94.94,0,0,0-.49.12.43.43,0,0,0-.2.39.53.53,0,0,0,0,.19.44.44,0,0,0,.14.13.91.91,0,0,0,.24.1l.38.1c.24.06.46.12.63.18a1.89,1.89,0,0,1,.45.22.86.86,0,0,1,.26.28,1,1,0,0,1,.08.4,1,1,0,0,1-.39.82A1.69,1.69,0,0,1,146.08,253.14Z" style="fill:#455a64"></path><path d="M150.76,253.07l-1.17-1.68-.6.57v1.11h-.77V248H149v3.23l1.67-1.77h.84L150.08,251l1.5,2.12Z" style="fill:#455a64"></path><path d="M155.6,254v-1.11h-2.14v-.68l2.38-3.08h.53v3.07H157v.69h-.61V254Zm-1.36-1.8h1.44v-1.89Z" style="fill:#455a64"></path><path d="M141,267.42h-1.65v4.26h-.79v-4.26h-1.65v-.69H141Z" style="fill:#455a64"></path><path d="M141.79,271.75a1.33,1.33,0,0,1-.49-.09,1.28,1.28,0,0,1-.39-.24,1.19,1.19,0,0,1-.26-.36,1.13,1.13,0,0,1-.09-.45,1,1,0,0,1,.11-.47,1.1,1.1,0,0,1,.32-.36,1.32,1.32,0,0,1,.49-.24,2,2,0,0,1,.62-.09,2.94,2.94,0,0,1,.51.05,2.44,2.44,0,0,1,.45.12v-.25a.82.82,0,0,0-.23-.63.9.9,0,0,0-.66-.23,1.6,1.6,0,0,0-.57.11,3.06,3.06,0,0,0-.59.31l-.23-.49a2.61,2.61,0,0,1,1.46-.47,1.7,1.7,0,0,1,1.17.38,1.43,1.43,0,0,1,.42,1.1v1.32c0,.17.07.25.2.25v.66l-.19,0h-.16a.47.47,0,0,1-.34-.12.48.48,0,0,1-.15-.28l0-.23a1.72,1.72,0,0,1-.61.49A1.77,1.77,0,0,1,141.79,271.75Zm.21-.56a1.36,1.36,0,0,0,.53-.11.93.93,0,0,0,.39-.28.36.36,0,0,0,.14-.26v-.48a1.39,1.39,0,0,0-.41-.12,2.18,2.18,0,0,0-.43-.05,1.13,1.13,0,0,0-.67.18.55.55,0,0,0-.27.47.59.59,0,0,0,.21.46A.73.73,0,0,0,142,271.19Z" style="fill:#455a64"></path><path d="M146.08,271.75a2.93,2.93,0,0,1-.87-.14,2.26,2.26,0,0,1-.75-.41l.31-.49a2.59,2.59,0,0,0,.64.36,1.92,1.92,0,0,0,.66.12.94.94,0,0,0,.54-.13.43.43,0,0,0,.2-.38.34.34,0,0,0-.22-.33,4,4,0,0,0-.7-.23c-.23-.06-.42-.12-.59-.18a1.42,1.42,0,0,1-.39-.19.7.7,0,0,1-.23-.26,1,1,0,0,1-.07-.36,1.1,1.1,0,0,1,.11-.49,1,1,0,0,1,.3-.37,1.35,1.35,0,0,1,.45-.22A1.69,1.69,0,0,1,146,268a2.43,2.43,0,0,1,.77.12,2.09,2.09,0,0,1,.63.37l-.33.46a1.72,1.72,0,0,0-1.08-.41.85.85,0,0,0-.49.13.42.42,0,0,0-.2.38.49.49,0,0,0,0,.19.35.35,0,0,0,.14.13.91.91,0,0,0,.24.1l.38.11c.24.06.46.12.63.18a1.89,1.89,0,0,1,.45.21.75.75,0,0,1,.34.68,1,1,0,0,1-.39.83A1.75,1.75,0,0,1,146.08,271.75Z" style="fill:#455a64"></path><path d="M150.76,271.68,149.59,270l-.6.57v1.11h-.77v-5.09H149v3.23l1.67-1.78h.84l-1.42,1.53,1.5,2.11Z" style="fill:#455a64"></path><path d="M155.29,269.47a1.71,1.71,0,0,1,.65.12,1.82,1.82,0,0,1,.52.32,1.63,1.63,0,0,1,.34.51,1.66,1.66,0,0,1,.12.64,1.69,1.69,0,0,1-.14.68,1.5,1.5,0,0,1-.37.52,1.63,1.63,0,0,1-.57.34,2.08,2.08,0,0,1-.71.12,1.93,1.93,0,0,1-1-.24,1.69,1.69,0,0,1-.65-.65l.46-.44a1.6,1.6,0,0,0,.5.47,1.31,1.31,0,0,0,.66.18,1,1,0,0,0,.71-.26.92.92,0,0,0,.28-.71,1,1,0,0,0-.07-.38,1,1,0,0,0-.2-.29.85.85,0,0,0-.3-.19.9.9,0,0,0-.37-.07,1.22,1.22,0,0,0-.5.11.93.93,0,0,0-.37.34h-.68s0-.07,0-.17,0-.21.07-.34.06-.3.09-.47.07-.35.1-.53c.09-.41.18-.87.28-1.38h2.42v.7h-1.87l-.25,1.35a.92.92,0,0,1,.32-.2A1.11,1.11,0,0,1,155.29,269.47Z" style="fill:#455a64"></path><path d="M141,286h-1.65v4.26h-.79V286h-1.65v-.69H141Z" style="fill:#455a64"></path><path d="M141.79,290.36a1.57,1.57,0,0,1-.49-.08,1.14,1.14,0,0,1-.39-.25,1.19,1.19,0,0,1-.26-.36,1.13,1.13,0,0,1-.09-.45,1,1,0,0,1,.11-.47,1.1,1.1,0,0,1,.32-.36,1.72,1.72,0,0,1,.49-.24,2,2,0,0,1,.62-.08,2.92,2.92,0,0,1,.51,0,2.44,2.44,0,0,1,.45.12V288a.82.82,0,0,0-.23-.63.89.89,0,0,0-.66-.22,1.59,1.59,0,0,0-.57.1,3.74,3.74,0,0,0-.59.31l-.23-.48a2.54,2.54,0,0,1,1.46-.48,1.65,1.65,0,0,1,1.17.39,1.4,1.4,0,0,1,.42,1.1v1.32c0,.16.07.24.2.25v.65l-.19,0h-.16a.45.45,0,0,1-.49-.4l0-.23a1.62,1.62,0,0,1-.61.49A1.64,1.64,0,0,1,141.79,290.36Zm.21-.56a1.56,1.56,0,0,0,.53-.1,1.05,1.05,0,0,0,.39-.29.36.36,0,0,0,.14-.26v-.48a2.45,2.45,0,0,0-.41-.12,2.15,2.15,0,0,0-.43,0,1.21,1.21,0,0,0-.67.17.55.55,0,0,0-.27.48.57.57,0,0,0,.21.45A.69.69,0,0,0,142,289.8Z" style="fill:#455a64"></path><path d="M146.08,290.36a2.93,2.93,0,0,1-.87-.14,2.26,2.26,0,0,1-.75-.41l.31-.49a2.59,2.59,0,0,0,.64.36,1.92,1.92,0,0,0,.66.12.94.94,0,0,0,.54-.13.43.43,0,0,0,.2-.37.35.35,0,0,0-.22-.34,4,4,0,0,0-.7-.23l-.59-.17a1.76,1.76,0,0,1-.39-.2.63.63,0,0,1-.23-.26.91.91,0,0,1-.07-.35,1.15,1.15,0,0,1,.11-.5,1.07,1.07,0,0,1,.3-.37,1.35,1.35,0,0,1,.45-.22,2,2,0,0,1,.56-.08,2.19,2.19,0,0,1,.77.13,1.88,1.88,0,0,1,.63.36l-.33.46a1.7,1.7,0,0,0-1.08-.4.94.94,0,0,0-.49.12.42.42,0,0,0-.2.38.49.49,0,0,0,0,.19.47.47,0,0,0,.14.14,1.45,1.45,0,0,0,.24.1l.38.1c.24.06.46.12.63.18a1.89,1.89,0,0,1,.45.21.89.89,0,0,1,.26.29.93.93,0,0,1,.08.39,1,1,0,0,1-.39.83A1.75,1.75,0,0,1,146.08,290.36Z" style="fill:#455a64"></path><path d="M150.76,290.29l-1.17-1.68-.6.57v1.11h-.77V285.2H149v3.23l1.67-1.78h.84l-1.42,1.53,1.5,2.11Z" style="fill:#455a64"></path><path d="M157.24,288.65a1.71,1.71,0,0,1-.14.67,1.58,1.58,0,0,1-.37.54,1.7,1.7,0,0,1-.57.37,1.83,1.83,0,0,1-.71.13,1.78,1.78,0,0,1-.74-.15,1.44,1.44,0,0,1-.57-.43,2.07,2.07,0,0,1-.37-.69,2.92,2.92,0,0,1-.13-.92,5.13,5.13,0,0,1,.14-1.25,2.6,2.6,0,0,1,.38-.89,1.59,1.59,0,0,1,.59-.54,1.55,1.55,0,0,1,.78-.19,1.81,1.81,0,0,1,.87.22,1.73,1.73,0,0,1,.64.62l-.46.47a1.09,1.09,0,0,0-.44-.46,1.15,1.15,0,0,0-.62-.18,1,1,0,0,0-.84.45,2.26,2.26,0,0,0-.32,1.24,1.09,1.09,0,0,1,.46-.49,1.35,1.35,0,0,1,.7-.18,1.87,1.87,0,0,1,.68.12,1.7,1.7,0,0,1,.54.36,1.59,1.59,0,0,1,.37.52A1.62,1.62,0,0,1,157.24,288.65Zm-1.79,1.06a1,1,0,0,0,.41-.09,1,1,0,0,0,.34-.23,1,1,0,0,0,.22-.34.9.9,0,0,0,.09-.4,1,1,0,0,0-.09-.41,1.19,1.19,0,0,0-.22-.33,1.36,1.36,0,0,0-.34-.23,1.11,1.11,0,0,0-.41-.08,1.06,1.06,0,0,0-.4.08,1.36,1.36,0,0,0-.34.23,1.5,1.5,0,0,0-.23.33,1.11,1.11,0,0,0-.08.41,1.06,1.06,0,0,0,.08.4,1.2,1.2,0,0,0,.23.34,1,1,0,0,0,.34.23A.9.9,0,0,0,155.45,289.71Z" style="fill:#455a64"></path><path d="M141,304.64h-1.65v4.27h-.79v-4.27h-1.65V304H141Z" style="fill:#455a64"></path><path d="M141.79,309a1.33,1.33,0,0,1-.49-.08,1.28,1.28,0,0,1-.39-.24,1.37,1.37,0,0,1-.26-.37,1.13,1.13,0,0,1-.09-.45,1,1,0,0,1,.11-.47A1.1,1.1,0,0,1,141,307a1.72,1.72,0,0,1,.49-.24,2.33,2.33,0,0,1,.62-.08,4.38,4.38,0,0,1,.51,0,3.52,3.52,0,0,1,.45.13v-.25a.82.82,0,0,0-.23-.63.86.86,0,0,0-.66-.23,1.41,1.41,0,0,0-.57.11,2.59,2.59,0,0,0-.59.31l-.23-.49a2.54,2.54,0,0,1,1.46-.48,1.65,1.65,0,0,1,1.17.39,1.4,1.4,0,0,1,.42,1.1V308c0,.16.07.24.2.25v.66l-.19,0h-.16a.45.45,0,0,1-.49-.4l0-.23a1.53,1.53,0,0,1-.61.49A1.64,1.64,0,0,1,141.79,309Zm.21-.56a1.35,1.35,0,0,0,.53-.1,1,1,0,0,0,.39-.28.4.4,0,0,0,.14-.27v-.48a2.45,2.45,0,0,0-.41-.12,2.15,2.15,0,0,0-.43,0,1.13,1.13,0,0,0-.67.18.54.54,0,0,0-.27.47.6.6,0,0,0,.21.46A.72.72,0,0,0,142,308.41Z" style="fill:#455a64"></path><path d="M146.08,309a2.64,2.64,0,0,1-.87-.14,2.1,2.1,0,0,1-.75-.41l.31-.48a3.44,3.44,0,0,0,.64.36,1.92,1.92,0,0,0,.66.12.94.94,0,0,0,.54-.14.42.42,0,0,0,.2-.37.35.35,0,0,0-.22-.34,5.16,5.16,0,0,0-.7-.23l-.59-.17a1.42,1.42,0,0,1-.39-.2.63.63,0,0,1-.23-.26.87.87,0,0,1-.07-.35,1.15,1.15,0,0,1,.11-.5,1,1,0,0,1,.3-.36,1.37,1.37,0,0,1,.45-.23,2,2,0,0,1,.56-.08,2.44,2.44,0,0,1,.77.13,1.88,1.88,0,0,1,.63.36l-.33.46a1.7,1.7,0,0,0-1.08-.4.94.94,0,0,0-.49.12.43.43,0,0,0-.2.39.58.58,0,0,0,0,.19.44.44,0,0,0,.14.13.91.91,0,0,0,.24.1l.38.1c.24.06.46.12.63.18a1.89,1.89,0,0,1,.45.21,1,1,0,0,1,.26.29.93.93,0,0,1,.08.39,1,1,0,0,1-.39.83A1.75,1.75,0,0,1,146.08,309Z" style="fill:#455a64"></path><path d="M150.76,308.91l-1.17-1.69-.6.58v1.11h-.77v-5.1H149V307l1.67-1.78h.84l-1.42,1.53,1.5,2.12Z" style="fill:#455a64"></path><path d="M155.9,305.54h-2.4v-.7h3.61l-2.47,5h-.87Z" style="fill:#455a64"></path><path d="M591.5,168.64a5.24,5.24,0,0,1,.09-1,2.7,2.7,0,0,1,.33-.87,3.18,3.18,0,0,1,.63-.78,5.26,5.26,0,0,1,1-.71l.85-.45a7.22,7.22,0,0,0,.7-.41,2,2,0,0,0,.48-.42.82.82,0,0,0,.18-.52,1,1,0,0,0-.35-.74,1.47,1.47,0,0,0-1-.33,2.08,2.08,0,0,0-.63.09,2.6,2.6,0,0,0-.53.25,2.36,2.36,0,0,0-.42.33c-.12.12-.23.23-.32.34l-.9-1a3.26,3.26,0,0,1,.4-.35,4.56,4.56,0,0,1,.67-.41,4.71,4.71,0,0,1,.9-.33,4.18,4.18,0,0,1,1.09-.13,3.57,3.57,0,0,1,1.12.16,2.42,2.42,0,0,1,.83.44,2.06,2.06,0,0,1,.53.68,2,2,0,0,1,.18.84,1.81,1.81,0,0,1-.2.85,2.91,2.91,0,0,1-.47.66,3.13,3.13,0,0,1-.62.48,6.75,6.75,0,0,1-.62.34l-.61.31a5.15,5.15,0,0,0-.67.4,5.48,5.48,0,0,0-.58.48,1.45,1.45,0,0,0-.36.57h4.27v1.27Z" style="fill:#455a64"></path><path d="M605.31,164.87a4.6,4.6,0,0,1-.25,1.56,4,4,0,0,1-.69,1.24,3.16,3.16,0,0,1-1,.81,3,3,0,0,1-1.31.29,3,3,0,0,1-2.35-1.1,4,4,0,0,1-.69-1.24,4.6,4.6,0,0,1-.25-1.56,4.66,4.66,0,0,1,.25-1.57,4,4,0,0,1,.69-1.23,3.18,3.18,0,0,1,1-.82A2.9,2.9,0,0,1,602,161a2.87,2.87,0,0,1,1.31.3,3.32,3.32,0,0,1,1,.82,4,4,0,0,1,.69,1.23A4.66,4.66,0,0,1,605.31,164.87Zm-1.44,0a3.53,3.53,0,0,0-.14-1.06,2.48,2.48,0,0,0-.38-.82,1.88,1.88,0,0,0-.59-.54,1.67,1.67,0,0,0-1.51,0,1.68,1.68,0,0,0-.59.54,2.5,2.5,0,0,0-.39.82,3.89,3.89,0,0,0-.14,1.06,3.81,3.81,0,0,0,.14,1,2.5,2.5,0,0,0,.39.82,1.65,1.65,0,0,0,.59.53,1.6,1.6,0,0,0,1.51,0,1.84,1.84,0,0,0,.59-.53,2.48,2.48,0,0,0,.38-.82A3.47,3.47,0,0,0,603.87,164.87Z" style="fill:#455a64"></path><path d="M606.49,168.64a5.26,5.26,0,0,1,.08-1,2.7,2.7,0,0,1,.33-.87,3.18,3.18,0,0,1,.63-.78,5.26,5.26,0,0,1,1-.71l.85-.45a7.22,7.22,0,0,0,.7-.41,2,2,0,0,0,.48-.42.82.82,0,0,0,.18-.52,1,1,0,0,0-.35-.74,1.46,1.46,0,0,0-1-.33,2.11,2.11,0,0,0-.64.09,2.87,2.87,0,0,0-.53.25,2.36,2.36,0,0,0-.42.33c-.12.12-.23.23-.32.34l-.9-1a3.26,3.26,0,0,1,.4-.35,4.56,4.56,0,0,1,.67-.41,5,5,0,0,1,.9-.33,4.18,4.18,0,0,1,1.09-.13,3.52,3.52,0,0,1,1.12.16,2.57,2.57,0,0,1,.84.44,2,2,0,0,1,.52.68,2,2,0,0,1,.18.84,1.81,1.81,0,0,1-.2.85,2.4,2.4,0,0,1-.47.66,3.13,3.13,0,0,1-.62.48,5.66,5.66,0,0,1-.62.34l-.61.31a4.46,4.46,0,0,0-.66.4,4,4,0,0,0-.58.48,1.37,1.37,0,0,0-.37.57h4.27v1.27Z" style="fill:#455a64"></path><path d="M613.56,168.64a5.24,5.24,0,0,1,.09-1,2.68,2.68,0,0,1,.32-.87,3.18,3.18,0,0,1,.63-.78,5.58,5.58,0,0,1,1-.71l.85-.45a6.19,6.19,0,0,0,.7-.41,2.07,2.07,0,0,0,.49-.42.82.82,0,0,0,.18-.52,1,1,0,0,0-.36-.74,1.44,1.44,0,0,0-1-.33,2.15,2.15,0,0,0-.64.09,2.87,2.87,0,0,0-.53.25,2.36,2.36,0,0,0-.42.33l-.32.34-.9-1a3.52,3.52,0,0,1,.41-.35,3.7,3.7,0,0,1,.67-.41,4.86,4.86,0,0,1,.89-.33,4.25,4.25,0,0,1,1.1-.13,3.5,3.5,0,0,1,1.11.16,2.57,2.57,0,0,1,.84.44,1.9,1.9,0,0,1,.52.68,2,2,0,0,1,.18.84,1.8,1.8,0,0,1-.19.85,2.66,2.66,0,0,1-.48.66,3.13,3.13,0,0,1-.62.48,5.66,5.66,0,0,1-.62.34l-.61.31a4.46,4.46,0,0,0-.66.4,4,4,0,0,0-.58.48,1.45,1.45,0,0,0-.36.57h4.26v1.27Z" style="fill:#455a64"></path><rect x="166.81" y="156.77" width="32.91" height="17.08" style="fill:#166765"></rect><rect x="201.67" y="156.77" width="32.91" height="17.08" style="fill:#166765"></rect><rect x="236.52" y="156.77" width="32.91" height="17.08" style="fill:#166765"></rect><rect x="271.38" y="156.77" width="32.91" height="17.08" style="fill:#166765"></rect><rect x="306.23" y="156.77" width="32.91" height="17.08" style="fill:#166765"></rect><rect x="341.09" y="156.77" width="32.91" height="17.08" style="fill:#166765"></rect><rect x="375.95" y="156.77" width="32.91" height="17.08" style="fill:#166765"></rect><rect x="410.8" y="156.77" width="32.91" height="17.08" style="fill:#166765"></rect><rect x="445.66" y="156.77" width="32.91" height="17.08" style="fill:#166765"></rect><rect x="480.51" y="156.77" width="32.91" height="17.08" style="fill:#166765"></rect><rect x="515.37" y="156.77" width="32.91" height="17.08" style="fill:#166765"></rect><rect x="550.23" y="156.77" width="32.91" height="17.08" style="fill:#166765"></rect><path d="M177.8,167a1.68,1.68,0,0,0,.35.16,1.53,1.53,0,0,0,.54.08,1.07,1.07,0,0,0,.51-.11.69.69,0,0,0,.29-.34,1.76,1.76,0,0,0,.14-.57c0-.23,0-.49,0-.79v-2.51h.79v2.51a8.05,8.05,0,0,1-.06,1,2.28,2.28,0,0,1-.24.8,1.31,1.31,0,0,1-.53.51,2,2,0,0,1-.93.18,1.91,1.91,0,0,1-1.08-.31Z" style="fill:#fff"></path><path d="M182.33,167.91a1.3,1.3,0,0,1-.49-.09,1.28,1.28,0,0,1-.39-.24,1,1,0,0,1-.26-.36,1.13,1.13,0,0,1-.09-.45.91.91,0,0,1,.11-.47,1.06,1.06,0,0,1,.31-.36,1.32,1.32,0,0,1,.49-.24,2.08,2.08,0,0,1,.63-.09,3,3,0,0,1,1,.17v-.25a.85.85,0,0,0-.23-.63.91.91,0,0,0-.66-.23,1.66,1.66,0,0,0-.58.11,3,3,0,0,0-.58.31l-.24-.49a2.64,2.64,0,0,1,1.47-.47,1.7,1.7,0,0,1,1.17.38,1.43,1.43,0,0,1,.42,1.1v1.32c0,.17.06.25.2.25v.66l-.19,0h-.16a.45.45,0,0,1-.34-.12.39.39,0,0,1-.15-.28l0-.23a1.69,1.69,0,0,1-.6.49A1.84,1.84,0,0,1,182.33,167.91Zm.21-.57a1.35,1.35,0,0,0,.53-.1.84.84,0,0,0,.38-.28.34.34,0,0,0,.15-.26v-.49a1.85,1.85,0,0,0-.42-.11,2.09,2.09,0,0,0-.42,0,1.19,1.19,0,0,0-.68.18.56.56,0,0,0-.26.47.61.61,0,0,0,.2.46A.77.77,0,0,0,182.54,167.34Z" style="fill:#fff"></path><path d="M188.57,167.84h-.77v-2a1.31,1.31,0,0,0-.16-.75.56.56,0,0,0-.49-.24.78.78,0,0,0-.33.07,1.23,1.23,0,0,0-.32.17,1.39,1.39,0,0,0-.26.28,1,1,0,0,0-.18.34v2.17h-.77v-3.65h.7v.73a1.49,1.49,0,0,1,.61-.58,1.84,1.84,0,0,1,.88-.21,1.08,1.08,0,0,1,.54.12.85.85,0,0,1,.33.32,1.44,1.44,0,0,1,.17.48,3.24,3.24,0,0,1,0,.56Z" style="fill:#fff"></path><path d="M212.51,167.84v-5h3.3v.69h-2.52v1.48h2.11v.64h-2.11v2.14Z" style="fill:#fff"></path><path d="M217.87,167.91a2,2,0,0,1-.78-.15,1.78,1.78,0,0,1-.59-.41,1.88,1.88,0,0,1-.39-.6,2.09,2.09,0,0,1,0-1.45,1.93,1.93,0,0,1,.39-.61,1.78,1.78,0,0,1,.59-.41,2,2,0,0,1,.79-.15,1.92,1.92,0,0,1,.77.15,1.84,1.84,0,0,1,1.09,1.71.81.81,0,0,1,0,.16s0,.09,0,.12h-2.93a1.5,1.5,0,0,0,.12.44,1.16,1.16,0,0,0,.24.34,1.15,1.15,0,0,0,.35.22,1.05,1.05,0,0,0,.4.07,1.53,1.53,0,0,0,.3,0,1.39,1.39,0,0,0,.28-.12.87.87,0,0,0,.22-.17.83.83,0,0,0,.15-.23l.66.18a1.58,1.58,0,0,1-.63.68A2,2,0,0,1,217.87,167.91Zm1.11-2.17a1.25,1.25,0,0,0-.12-.43,1,1,0,0,0-.24-.33,1.08,1.08,0,0,0-.34-.21,1.15,1.15,0,0,0-.41-.08,1.11,1.11,0,0,0-.41.08,1.08,1.08,0,0,0-.34.21,1,1,0,0,0-.23.33,1.25,1.25,0,0,0-.12.43Z" style="fill:#fff"></path><path d="M222.33,167.91a1.48,1.48,0,0,1-.75-.2,1.45,1.45,0,0,1-.54-.53v.66h-.67v-5.09h.76v2.13a1.8,1.8,0,0,1,.55-.55,1.43,1.43,0,0,1,.76-.2,1.34,1.34,0,0,1,.66.16,1.57,1.57,0,0,1,.51.41,1.72,1.72,0,0,1,.33.61,2.18,2.18,0,0,1,.12.72,2.26,2.26,0,0,1-.13.74,1.9,1.9,0,0,1-.37.59,1.48,1.48,0,0,1-.55.4A1.54,1.54,0,0,1,222.33,167.91Zm-.2-.66a1,1,0,0,0,.46-.1,1,1,0,0,0,.36-.27,1.36,1.36,0,0,0,.24-.38,1.45,1.45,0,0,0,.08-.47,1.5,1.5,0,0,0-.08-.47,1.41,1.41,0,0,0-.22-.4,1.17,1.17,0,0,0-.35-.27.89.89,0,0,0-.43-.11,1,1,0,0,0-.63.23,1.56,1.56,0,0,0-.43.56v1a.76.76,0,0,0,.15.28.92.92,0,0,0,.25.23.85.85,0,0,0,.3.15A.79.79,0,0,0,222.13,167.25Z" style="fill:#fff"></path><path d="M251.49,167.84v-3.57L250,167h-.44l-1.48-2.7v3.57h-.78v-5h.84l1.64,3,1.64-3h.84v5Z" style="fill:#fff"></path><path d="M254.23,167.91a1.3,1.3,0,0,1-.49-.09,1.28,1.28,0,0,1-.39-.24,1,1,0,0,1-.26-.36,1.14,1.14,0,0,1-.1-.45.91.91,0,0,1,.12-.47,1.06,1.06,0,0,1,.31-.36,1.32,1.32,0,0,1,.49-.24,2.08,2.08,0,0,1,.63-.09,3,3,0,0,1,1,.17v-.25a.85.85,0,0,0-.23-.63.91.91,0,0,0-.66-.23,1.66,1.66,0,0,0-.58.11,3,3,0,0,0-.58.31l-.24-.49a2.64,2.64,0,0,1,1.47-.47,1.7,1.7,0,0,1,1.17.38,1.43,1.43,0,0,1,.42,1.1v1.32c0,.17.06.25.2.25v.66l-.19,0h-.16a.5.5,0,0,1-.35-.12.48.48,0,0,1-.15-.28l0-.23a1.69,1.69,0,0,1-.6.49A1.84,1.84,0,0,1,254.23,167.91Zm.21-.57a1.39,1.39,0,0,0,.53-.1.84.84,0,0,0,.38-.28.34.34,0,0,0,.15-.26v-.49a1.85,1.85,0,0,0-.42-.11,2.1,2.1,0,0,0-.43,0,1.17,1.17,0,0,0-.67.18.56.56,0,0,0-.26.47.61.61,0,0,0,.2.46A.77.77,0,0,0,254.44,167.34Z" style="fill:#fff"></path><path d="M259.25,164.85a1.73,1.73,0,0,0-.8.21,1.09,1.09,0,0,0-.49.55v2.23h-.77v-3.65h.72V165a1.74,1.74,0,0,1,.49-.61,1.16,1.16,0,0,1,.65-.24h.2Z" style="fill:#fff"></path><path d="M284.07,162.89h.68l2,5h-.83l-.52-1.35h-1.91l-.52,1.35h-.83Zm1.14,3-.8-2.12-.82,2.12Z" style="fill:#fff"></path><path d="M289.29,167.91a1.41,1.41,0,0,1-.77-.21,1.61,1.61,0,0,1-.53-.54v2.17h-.77v-5.14h.68v.66a1.61,1.61,0,0,1,.54-.53,1.44,1.44,0,0,1,.75-.19,1.58,1.58,0,0,1,.69.15,1.68,1.68,0,0,1,.54.41,1.85,1.85,0,0,1,.36.6,2,2,0,0,1,.13.72,2.31,2.31,0,0,1-.12.75,1.75,1.75,0,0,1-.33.6,1.65,1.65,0,0,1-.51.4A1.45,1.45,0,0,1,289.29,167.91Zm-.25-.66a1,1,0,0,0,.45-.1,1.13,1.13,0,0,0,.34-.28,1.32,1.32,0,0,0,.29-.86,1.22,1.22,0,0,0-.08-.47,1.28,1.28,0,0,0-.24-.39,1.22,1.22,0,0,0-.36-.27,1.14,1.14,0,0,0-.45-.1.89.89,0,0,0-.31.06,1.4,1.4,0,0,0-.3.15,1.31,1.31,0,0,0-.24.23.85.85,0,0,0-.15.28v1a1.92,1.92,0,0,0,.18.31,1.48,1.48,0,0,0,.25.25,1.11,1.11,0,0,0,.3.17A.87.87,0,0,0,289,167.25Z" style="fill:#fff"></path><path d="M293.65,164.85a1.72,1.72,0,0,0-.79.21,1.09,1.09,0,0,0-.49.55v2.23h-.77v-3.65h.72V165a1.64,1.64,0,0,1,.49-.61,1.16,1.16,0,0,1,.65-.24h.19Z" style="fill:#fff"></path><path d="M320.64,167.84v-3.57l-1.47,2.7h-.44l-1.48-2.7v3.57h-.78v-5h.84l1.64,3,1.64-3h.84v5Z" style="fill:#fff"></path><path d="M323.38,167.91a1.3,1.3,0,0,1-.49-.09,1.28,1.28,0,0,1-.39-.24,1,1,0,0,1-.26-.36,1.14,1.14,0,0,1-.1-.45.91.91,0,0,1,.12-.47,1.06,1.06,0,0,1,.31-.36,1.32,1.32,0,0,1,.49-.24,2.08,2.08,0,0,1,.63-.09,2.73,2.73,0,0,1,.5,0,2.8,2.8,0,0,1,.46.12v-.25a.85.85,0,0,0-.23-.63.93.93,0,0,0-.66-.23,1.66,1.66,0,0,0-.58.11,3,3,0,0,0-.58.31l-.24-.49a2.64,2.64,0,0,1,1.47-.47,1.7,1.7,0,0,1,1.17.38,1.43,1.43,0,0,1,.42,1.1v1.32c0,.17.06.25.2.25v.66l-.19,0h-.16a.5.5,0,0,1-.35-.12.48.48,0,0,1-.15-.28l0-.23a1.69,1.69,0,0,1-.6.49A1.84,1.84,0,0,1,323.38,167.91Zm.21-.57a1.39,1.39,0,0,0,.53-.1.84.84,0,0,0,.38-.28.34.34,0,0,0,.15-.26v-.49a1.85,1.85,0,0,0-.42-.11,2.1,2.1,0,0,0-.43,0,1.17,1.17,0,0,0-.67.18.56.56,0,0,0-.26.47.61.61,0,0,0,.2.46A.77.77,0,0,0,323.59,167.34Z" style="fill:#fff"></path><path d="M326.38,168.7l.2,0,.17,0a.42.42,0,0,0,.16,0,.45.45,0,0,0,.13-.14.84.84,0,0,0,.14-.27c.05-.12.11-.27.18-.46l-1.5-3.65h.78l1.13,3,1-3h.72l-1.65,4.49a1.07,1.07,0,0,1-.39.53,1.12,1.12,0,0,1-.7.21h-.18a.79.79,0,0,1-.2,0Z" style="fill:#fff"></path><path d="M351.87,167a1.29,1.29,0,0,0,.35.16,1.44,1.44,0,0,0,.53.08,1,1,0,0,0,.51-.11.77.77,0,0,0,.3-.34,2.09,2.09,0,0,0,.13-.57c0-.23,0-.49,0-.79v-2.51h.79v2.51a8.05,8.05,0,0,1-.06,1,2.09,2.09,0,0,1-.23.8,1.37,1.37,0,0,1-.53.51,2.1,2.1,0,0,1-.94.18,1.85,1.85,0,0,1-1.07-.31Z" style="fill:#fff"></path><path d="M356.6,167.91a1,1,0,0,1-.87-.37,1.76,1.76,0,0,1-.29-1.12v-2.23h.76v2.08c0,.66.24,1,.7,1a1,1,0,0,0,.62-.2,1.28,1.28,0,0,0,.46-.58v-2.28h.76v2.74a.31.31,0,0,0,.05.19.18.18,0,0,0,.16.06v.66l-.19,0h-.15a.51.51,0,0,1-.35-.12.41.41,0,0,1-.16-.3v-.36a1.54,1.54,0,0,1-.64.6A1.76,1.76,0,0,1,356.6,167.91Z" style="fill:#fff"></path><path d="M363,167.84h-.76v-2a1.3,1.3,0,0,0-.17-.75.55.55,0,0,0-.48-.24.83.83,0,0,0-.34.07,1.34,1.34,0,0,0-.31.17,1.16,1.16,0,0,0-.26.28,1,1,0,0,0-.18.34v2.17h-.77v-3.65h.7v.73a1.49,1.49,0,0,1,.61-.58,1.81,1.81,0,0,1,.87-.21,1.08,1.08,0,0,1,.54.12.85.85,0,0,1,.33.32,1.44,1.44,0,0,1,.17.48,2.48,2.48,0,0,1,.05.56Z" style="fill:#fff"></path><path d="M387.86,167a1.29,1.29,0,0,0,.35.16,1.44,1.44,0,0,0,.53.08,1,1,0,0,0,.51-.11.77.77,0,0,0,.3-.34,2.09,2.09,0,0,0,.13-.57c0-.23,0-.49,0-.79v-2.51h.79v2.51a8.05,8.05,0,0,1-.06,1,2.09,2.09,0,0,1-.23.8,1.37,1.37,0,0,1-.53.51,2.1,2.1,0,0,1-.94.18,1.85,1.85,0,0,1-1.07-.31Z" style="fill:#fff"></path><path d="M392.59,167.91a1,1,0,0,1-.87-.37,1.76,1.76,0,0,1-.29-1.12v-2.23h.76v2.08c0,.66.24,1,.7,1a1,1,0,0,0,.62-.2,1.28,1.28,0,0,0,.46-.58v-2.28h.76v2.74a.31.31,0,0,0,0,.19.18.18,0,0,0,.16.06v.66l-.19,0h-.15a.51.51,0,0,1-.35-.12.41.41,0,0,1-.16-.3v-.36a1.54,1.54,0,0,1-.64.6A1.76,1.76,0,0,1,392.59,167.91Z" style="fill:#fff"></path><path d="M395.72,162.75h.77v4a.43.43,0,0,0,.1.31.37.37,0,0,0,.29.12l.18,0,.19-.06.11.6a1.8,1.8,0,0,1-.39.12,2.27,2.27,0,0,1-.41.05.85.85,0,0,1-.62-.22.8.8,0,0,1-.22-.61Z" style="fill:#fff"></path><path d="M422.6,162.89h.68l2,5h-.83l-.52-1.35H422l-.52,1.35h-.83Zm1.14,3-.8-2.12-.82,2.12Z" style="fill:#fff"></path><path d="M426.79,167.91a1,1,0,0,1-.86-.37,1.76,1.76,0,0,1-.3-1.12v-2.23h.77v2.08c0,.66.24,1,.7,1a1,1,0,0,0,.62-.2,1.2,1.2,0,0,0,.45-.58v-2.28h.77v2.74a.31.31,0,0,0,.05.19.18.18,0,0,0,.16.06v.66l-.19,0h-.15a.56.56,0,0,1-.36-.12.37.37,0,0,1-.15-.3v-.36a1.6,1.6,0,0,1-.64.6A1.79,1.79,0,0,1,426.79,167.91Z" style="fill:#fff"></path><path d="M431.36,167.88a1.64,1.64,0,0,1-.67-.15,1.67,1.67,0,0,1-.53-.41,1.87,1.87,0,0,1-.34-.6,2,2,0,0,1-.13-.7,2.26,2.26,0,0,1,.13-.74,1.79,1.79,0,0,1,.35-.6,1.73,1.73,0,0,1,.53-.4,1.58,1.58,0,0,1,.69-.15,1.41,1.41,0,0,1,.77.21,1.89,1.89,0,0,1,.55.54v-.69h.68v3.55a1.57,1.57,0,0,1-.15.7,1.48,1.48,0,0,1-.41.52,1.74,1.74,0,0,1-.62.32,2.33,2.33,0,0,1-.76.12,2.16,2.16,0,0,1-1-.21,2,2,0,0,1-.68-.58l.44-.4a1.48,1.48,0,0,0,.54.45,1.67,1.67,0,0,0,.71.15,1.74,1.74,0,0,0,.45-.06,1.2,1.2,0,0,0,.37-.2.9.9,0,0,0,.25-.33,1.06,1.06,0,0,0,.1-.48v-.56a1.33,1.33,0,0,1-.54.51A1.55,1.55,0,0,1,431.36,167.88Zm.25-.63a1,1,0,0,0,.34-.06,1,1,0,0,0,.29-.16,1,1,0,0,0,.24-.23.87.87,0,0,0,.14-.27v-1a2,2,0,0,0-.18-.32,1.48,1.48,0,0,0-.26-.24,1.11,1.11,0,0,0-.3-.17,1,1,0,0,0-.32-.06.94.94,0,0,0-.45.11,1.05,1.05,0,0,0-.34.29,1.32,1.32,0,0,0-.29.86,1.45,1.45,0,0,0,.08.47,1.12,1.12,0,0,0,.24.38,1.54,1.54,0,0,0,.36.27A1.13,1.13,0,0,0,431.61,167.25Z" style="fill:#fff"></path><path d="M459.15,164.05a.92.92,0,0,0-.2-.16,1.8,1.8,0,0,0-.31-.17,2.22,2.22,0,0,0-.39-.12,2.12,2.12,0,0,0-.44,0,1.21,1.21,0,0,0-.73.18.61.61,0,0,0-.23.5.66.66,0,0,0,.07.3.65.65,0,0,0,.23.2,2,2,0,0,0,.38.16l.54.14a7.05,7.05,0,0,1,.68.2,2.2,2.2,0,0,1,.51.27,1.06,1.06,0,0,1,.33.4,1.21,1.21,0,0,1,.11.57,1.29,1.29,0,0,1-.14.64,1.13,1.13,0,0,1-.39.45,1.73,1.73,0,0,1-.57.25,3.22,3.22,0,0,1-.71.08,3.6,3.6,0,0,1-1.09-.17,3.19,3.19,0,0,1-.95-.5l.35-.67a1.58,1.58,0,0,0,.26.2,3,3,0,0,0,.4.21c.15.06.32.11.49.16a2.51,2.51,0,0,0,.55.06,1.33,1.33,0,0,0,.72-.16.53.53,0,0,0,.25-.47.45.45,0,0,0-.1-.31.67.67,0,0,0-.27-.22,2.11,2.11,0,0,0-.42-.18l-.57-.16a5.65,5.65,0,0,1-.65-.2,1.84,1.84,0,0,1-.46-.26,1.14,1.14,0,0,1-.27-.36,1.28,1.28,0,0,1-.09-.5,1.51,1.51,0,0,1,.13-.65,1.37,1.37,0,0,1,.39-.47,1.49,1.49,0,0,1,.56-.29,2.34,2.34,0,0,1,.71-.1,2.75,2.75,0,0,1,.93.16,3,3,0,0,1,.75.4Z" style="fill:#fff"></path><path d="M462,167.91a1.92,1.92,0,0,1-.77-.15,1.83,1.83,0,0,1-.6-.41,1.86,1.86,0,0,1-.38-.6,1.95,1.95,0,0,1,0-1.45,1.91,1.91,0,0,1,.38-.61,1.83,1.83,0,0,1,.6-.41,2.08,2.08,0,0,1,1.55,0,1.78,1.78,0,0,1,.59.41,1.73,1.73,0,0,1,.37.59,1.9,1.9,0,0,1,.13.71.81.81,0,0,1,0,.16.41.41,0,0,1,0,.12H461a1.24,1.24,0,0,0,.11.44,1.42,1.42,0,0,0,.25.34,1.11,1.11,0,0,0,.34.22,1.09,1.09,0,0,0,.4.07,1.53,1.53,0,0,0,.3,0,1.18,1.18,0,0,0,.28-.12.72.72,0,0,0,.22-.17.87.87,0,0,0,.16-.23l.65.18a1.5,1.5,0,0,1-.62.68A2,2,0,0,1,462,167.91Zm1.11-2.17a1.24,1.24,0,0,0-.11-.43,1.4,1.4,0,0,0-.24-.33,1.13,1.13,0,0,0-.35-.21,1.11,1.11,0,0,0-.41-.08,1.15,1.15,0,0,0-.41.08,1.2,1.2,0,0,0-.34.21,1.14,1.14,0,0,0-.23.33,1.24,1.24,0,0,0-.11.43Z" style="fill:#fff"></path><path d="M466.61,167.91a1.41,1.41,0,0,1-.77-.21,1.52,1.52,0,0,1-.53-.54v2.17h-.77v-5.14h.68v.66a1.61,1.61,0,0,1,.54-.53,1.44,1.44,0,0,1,.75-.19,1.58,1.58,0,0,1,.69.15,1.68,1.68,0,0,1,.54.41,1.85,1.85,0,0,1,.36.6,2,2,0,0,1,.13.72,2.31,2.31,0,0,1-.12.75,1.93,1.93,0,0,1-.33.6,1.68,1.68,0,0,1-.52.4A1.38,1.38,0,0,1,466.61,167.91Zm-.25-.66a.92.92,0,0,0,.44-.1,1.06,1.06,0,0,0,.35-.28,1.71,1.71,0,0,0,.22-.4,1.43,1.43,0,0,0,.07-.46,1.23,1.23,0,0,0-.09-.47,1.09,1.09,0,0,0-.23-.39,1.22,1.22,0,0,0-.36-.27,1.15,1.15,0,0,0-.46-.1.84.84,0,0,0-.3.06,1.4,1.4,0,0,0-.3.15,1.1,1.1,0,0,0-.25.23.67.67,0,0,0-.14.28v1a1.09,1.09,0,0,0,.18.31,1.18,1.18,0,0,0,.25.25,1.05,1.05,0,0,0,.29.17A1,1,0,0,0,466.36,167.25Z" style="fill:#fff"></path><path d="M493.67,167.88a2.18,2.18,0,0,1-1-.22,2.46,2.46,0,0,1-.75-.56,2.78,2.78,0,0,1-.49-.81,2.69,2.69,0,0,1-.17-.93,2.59,2.59,0,0,1,.18-1,2.64,2.64,0,0,1,.5-.8,2.32,2.32,0,0,1,.76-.55,2.25,2.25,0,0,1,1.92,0,2.47,2.47,0,0,1,.74.58,2.41,2.41,0,0,1,.48.8,2.46,2.46,0,0,1,.17.92,2.75,2.75,0,0,1-.17.95,2.64,2.64,0,0,1-.5.8,2.6,2.6,0,0,1-.76.55A2.17,2.17,0,0,1,493.67,167.88Zm-1.57-2.52a2.2,2.2,0,0,0,.11.68,1.73,1.73,0,0,0,.32.58,1.41,1.41,0,0,0,.5.4,1.38,1.38,0,0,0,.65.15,1.35,1.35,0,0,0,.67-.16,1.6,1.6,0,0,0,.49-.41,2,2,0,0,0,.31-.58,2.07,2.07,0,0,0,.1-.66,2.25,2.25,0,0,0-.11-.68,2,2,0,0,0-.32-.57,1.6,1.6,0,0,0-.49-.4,1.41,1.41,0,0,0-.65-.15,1.47,1.47,0,0,0-.67.16,1.49,1.49,0,0,0-.49.41,1.76,1.76,0,0,0-.31.57A1.91,1.91,0,0,0,492.1,165.36Z" style="fill:#fff"></path><path d="M496.53,166a1.92,1.92,0,0,1,.13-.72,1.86,1.86,0,0,1,.38-.6,1.69,1.69,0,0,1,.6-.41,1.94,1.94,0,0,1,.78-.15,1.77,1.77,0,0,1,1,.25,1.5,1.5,0,0,1,.61.66l-.74.23a1,1,0,0,0-.36-.36,1,1,0,0,0-.49-.13.88.88,0,0,0-.43.1,1,1,0,0,0-.35.25,1.26,1.26,0,0,0-.23.39,1.29,1.29,0,0,0-.08.49,1.53,1.53,0,0,0,.08.49,1.33,1.33,0,0,0,.24.4,1.1,1.1,0,0,0,.35.26,1,1,0,0,0,.42.09,1.33,1.33,0,0,0,.28,0l.26-.11a1.56,1.56,0,0,0,.2-.16.63.63,0,0,0,.13-.2l.75.22a1.47,1.47,0,0,1-.61.68,1.91,1.91,0,0,1-1,.26,2,2,0,0,1-.78-.15,1.81,1.81,0,0,1-.59-.42,1.73,1.73,0,0,1-.39-.6A2,2,0,0,1,496.53,166Z" style="fill:#fff"></path><path d="M502.7,167.65a4,4,0,0,1-.41.16,1.67,1.67,0,0,1-.55.09,1.21,1.21,0,0,1-.34-.05,1,1,0,0,1-.29-.15.69.69,0,0,1-.19-.25,1.12,1.12,0,0,1-.07-.38v-2.29h-.48v-.59h.48V163h.77v1.2h.8v.59h-.8v2a.37.37,0,0,0,.12.28.4.4,0,0,0,.27.09,1.06,1.06,0,0,0,.31-.05,1,1,0,0,0,.21-.1Z" style="fill:#fff"></path><path d="M526.61,164.35v3.49h-.78v-5h.62l2.83,3.57v-3.57h.79v5h-.65Z" style="fill:#fff"></path><path d="M532.68,167.91a1.94,1.94,0,0,1-.78-.15,1.81,1.81,0,0,1-.59-.42,1.86,1.86,0,0,1-.38-.6,2.06,2.06,0,0,1,0-1.44,2,2,0,0,1,.38-.61,1.94,1.94,0,0,1,.6-.41,1.89,1.89,0,0,1,.77-.15,1.92,1.92,0,0,1,.77.15,1.78,1.78,0,0,1,.59.41,1.84,1.84,0,0,1,.38.61,2.06,2.06,0,0,1,0,1.44,1.71,1.71,0,0,1-.38.6,1.81,1.81,0,0,1-.59.42A1.92,1.92,0,0,1,532.68,167.91ZM531.59,166a1.46,1.46,0,0,0,.08.48,1.26,1.26,0,0,0,.23.39,1.1,1.1,0,0,0,.35.26,1,1,0,0,0,.43.09,1,1,0,0,0,.77-.35,1.09,1.09,0,0,0,.23-.39,1.3,1.3,0,0,0,.09-.49,1.37,1.37,0,0,0-.09-.49,1.09,1.09,0,0,0-.23-.39,1.06,1.06,0,0,0-.34-.26,1.08,1.08,0,0,0-.43-.1,1,1,0,0,0-.42.1,1.17,1.17,0,0,0-.35.27,1.09,1.09,0,0,0-.23.39A1.3,1.3,0,0,0,531.59,166Z" style="fill:#fff"></path><path d="M536.13,167.84l-1.39-3.65h.78l1.05,3,1-3h.73l-1.4,3.65Z" style="fill:#fff"></path><path d="M560.65,167.84v-5h1.75a2.68,2.68,0,0,1,1.06.19,2.26,2.26,0,0,1,.75.53,2.49,2.49,0,0,1,.46.79,3.15,3.15,0,0,1,0,2,2.4,2.4,0,0,1-.49.78,2.1,2.1,0,0,1-.76.5,2.66,2.66,0,0,1-1,.18Zm3.37-2.48a2.09,2.09,0,0,0-.11-.72,1.46,1.46,0,0,0-.82-.93,1.67,1.67,0,0,0-.69-.13h-1v3.57h1a1.71,1.71,0,0,0,.7-.14,1.46,1.46,0,0,0,.51-.37,1.57,1.57,0,0,0,.31-.57A2.34,2.34,0,0,0,564,165.36Z" style="fill:#fff"></path><path d="M567.2,167.91a2,2,0,0,1-.78-.15,1.78,1.78,0,0,1-.59-.41,1.73,1.73,0,0,1-.39-.6,2.09,2.09,0,0,1,0-1.45,1.84,1.84,0,0,1,1-1,2,2,0,0,1,.78-.15,1.94,1.94,0,0,1,.78.15,1.77,1.77,0,0,1,1,1,2.13,2.13,0,0,1,.13.71c0,.06,0,.11,0,.16s0,.09,0,.12h-2.93a1.24,1.24,0,0,0,.12.44,1.16,1.16,0,0,0,.24.34,1.24,1.24,0,0,0,.34.22,1.14,1.14,0,0,0,.41.07,1.53,1.53,0,0,0,.3,0,1.11,1.11,0,0,0,.27-.12A.76.76,0,0,0,568,167a1.14,1.14,0,0,0,.15-.23l.66.18a1.58,1.58,0,0,1-.63.68A2,2,0,0,1,567.2,167.91Zm1.11-2.17a1.52,1.52,0,0,0-.12-.43A1,1,0,0,0,568,165a1.08,1.08,0,0,0-.34-.21,1.15,1.15,0,0,0-.41-.08,1.11,1.11,0,0,0-.41.08,1.08,1.08,0,0,0-.34.21,1,1,0,0,0-.24.33,1.51,1.51,0,0,0-.11.43Z" style="fill:#fff"></path><path d="M569.46,166a1.92,1.92,0,0,1,.13-.72,1.86,1.86,0,0,1,.38-.6,1.69,1.69,0,0,1,.6-.41,1.94,1.94,0,0,1,.78-.15,1.77,1.77,0,0,1,1,.25,1.5,1.5,0,0,1,.61.66l-.74.23a1,1,0,0,0-.86-.49.87.87,0,0,0-.42.1,1,1,0,0,0-.35.25,1.26,1.26,0,0,0-.23.39,1.29,1.29,0,0,0-.08.49,1.53,1.53,0,0,0,.08.49,1.33,1.33,0,0,0,.24.4,1.1,1.1,0,0,0,.35.26,1,1,0,0,0,.42.09,1.33,1.33,0,0,0,.28,0l.26-.11a1.56,1.56,0,0,0,.2-.16.63.63,0,0,0,.13-.2l.75.22a1.47,1.47,0,0,1-.61.68,1.91,1.91,0,0,1-1,.26,2,2,0,0,1-.78-.15,1.81,1.81,0,0,1-.59-.42,1.73,1.73,0,0,1-.39-.6A2,2,0,0,1,569.46,166Z" style="fill:#fff"></path><polygon points="238.04 201.56 166.81 201.56 172.02 194.85 166.81 188.15 238.04 188.15 244.81 194.85 238.04 201.56" style="fill:#166765"></polygon><polygon points="386.84 238.13 329.5 238.13 334.71 231.81 329.5 224.73 386.84 224.73 393.61 231.43 386.84 238.13" style="fill:#166765"></polygon><polygon points="462.11 278.38 443.71 278.38 448.92 271.68 443.71 264.98 462.11 264.98 468.88 271.68 462.11 278.38" style="fill:#166765"></polygon><polygon points="546.84 315.61 519.24 315.61 524.45 308.91 519.24 302.21 546.84 302.21 553.61 308.91 546.84 315.61" style="fill:#166765"></polygon><polygon points="519.06 297.06 472.52 297.06 478.77 290.36 472.52 283.66 519.06 283.66 525.83 290.36 519.06 297.06" style="fill:#455a64"></polygon><polygon points="306.23 222.54 243.96 222.54 249.17 216.08 243.96 209.14 306.23 209.14 313 215.84 306.23 222.54" style="fill:#455a64"></polygon><polygon points="443.85 259.77 413.63 259.77 418.84 253.07 413.63 246.37 443.85 246.37 450.62 253.07 443.85 259.77" style="fill:#455a64"></polygon></g><g id="freepik--Notes--inject-72"><path d="M284.05,245.4H260.11V215.93h29.48v23.91C289.59,242.23,284.05,245.4,284.05,245.4Z" style="fill:#166765"></path><path d="M289.58,239.84c0,2.32-5.2,5.36-5.52,5.55.86-.59.72-5.2.72-5.2S289.5,239.57,289.58,239.84Z" style="opacity:0.2"></path><path d="M264.45,222.89c3.47-.28,6.93-.35,10.4-.36s6.93.08,10.4.36c-3.47.29-6.94.35-10.4.37S267.92,223.18,264.45,222.89Z" style="fill:#fff"></path><path d="M264.45,226.78c2.73-.29,5.45-.35,8.18-.37s5.45.08,8.18.37c-2.73.28-5.45.35-8.18.36S267.18,227.06,264.45,226.78Z" style="fill:#fff"></path><path d="M264.45,230.66c2.73-.28,5.45-.35,8.18-.36s5.45.08,8.18.36a80,80,0,0,1-8.18.37C269.9,231,267.18,231,264.45,230.66Z" style="fill:#fff"></path><path d="M517.11,263.57H493.16V234.1h29.48V258C522.64,260.4,517.11,263.57,517.11,263.57Z" style="fill:#ebebeb"></path><path d="M522.64,258c0,2.32-5.2,5.36-5.52,5.55.86-.59.71-5.2.71-5.2S522.55,257.74,522.64,258Z" style="fill:#c7c7c7"></path><path d="M497.5,241.06c3.47-.28,6.94-.35,10.4-.36s6.93.07,10.4.36c-3.47.29-6.93.35-10.4.37S501,241.35,497.5,241.06Z" style="fill:#fff"></path><path d="M497.5,245c2.73-.29,5.46-.35,8.18-.37s5.46.08,8.18.37c-2.72.28-5.45.35-8.18.36S500.23,245.23,497.5,245Z" style="fill:#fff"></path><path d="M497.5,248.83c2.73-.28,5.46-.35,8.18-.36s5.46.08,8.18.36a79.83,79.83,0,0,1-8.18.37C503,249.18,500.23,249.12,497.5,248.83Z" style="fill:#fff"></path><rect x="337.87" y="233.73" width="29.48" height="29.48" style="fill:#455a64"></rect><path d="M342.21,240.7c3.47-.29,6.93-.35,10.4-.37s6.93.08,10.4.37c-3.47.28-6.94.35-10.4.36S345.68,241,342.21,240.7Z" style="fill:#fff"></path><path d="M342.21,244.58c2.73-.28,5.45-.35,8.18-.36s5.45.08,8.18.36c-2.73.29-5.45.35-8.18.37S344.94,244.87,342.21,244.58Z" style="fill:#fff"></path><path d="M342.21,248.47c2.73-.29,5.45-.35,8.18-.37s5.45.08,8.18.37c-2.73.28-5.45.35-8.18.36S344.94,248.75,342.21,248.47Z" style="fill:#fff"></path></g><g id="freepik--Plant--inject-72"><path d="M102.66,342.64a64.62,64.62,0,0,0-2.06,11.66c.11.2.09.92,0,.72,0,.64-1,.53-1-.1,0-.42,0-.83,0-1.23-2.28-2.83-5.58-4.62-8.26-7.08a15.5,15.5,0,0,1-4.53-7.2c-2.21-7.65-.13-15.75-2.8-23.37-2.3-6.57-6.43-12.29-9.92-18.24-3.68-6.3-6.4-12.92-6.67-20.3-.22-5.65.46-13.18,4.76-17.41C76.75,255.6,82.4,259,85.9,263c10.12,11.62,14.8,26.31,16.7,41.32,1,8.31,2.13,16.67,1.88,25.06A67.6,67.6,0,0,1,102.66,342.64Z" style="fill:#166765"></path><path d="M100.65,357.35a143.42,143.42,0,0,0-.28-23.54s0,0,0-.08c.13-6.37.63-12.7.38-19.08A112.81,112.81,0,0,0,98,294.2c0-.08-.14-.06-.12,0a134.19,134.19,0,0,1,2.21,20q.19,5.4-.09,10.79c-.06,1.17-.17,2.34-.24,3.52h0a125.72,125.72,0,0,0-18.93-50.1c-.13-.21-.5,0-.37.23A130.56,130.56,0,0,1,95.85,315.8c-4.87-9-12.22-16.44-17.68-25.11,0-.05-.1,0-.08.05,4.9,9.65,13,17.26,18.16,26.77q1.35,5.81,2.18,11.72a132.44,132.44,0,0,1,1.17,16.28,185.56,185.56,0,0,1-8.47-16.71c-.07-.15-.29-.05-.24.11,2.07,6.09,4.84,12.65,8.73,17.84,0,3.86-.1,7.71-.32,11.56-.61,10.28-2.37,20.42-3.18,30.67a.24.24,0,0,0,.47,0A236,236,0,0,0,100.65,357.35Z" style="fill:#263238"></path><path d="M89.73,278.09c0-.07-.14,0-.11.05,1.88,5.19,2.94,10.45,4.29,15.77a.2.2,0,0,0,.39-.06C93.75,288.45,91.82,283.07,89.73,278.09Z" style="fill:#263238"></path><path d="M137.4,299.85a77.18,77.18,0,0,1-4.31,8.87c-3.38,6.14-6.91,11.76-7.55,18.91-.28,3.19-.39,6.4-1.36,9.47a28.37,28.37,0,0,1-3.77,7.42c-3.67,5.34-8.25,9.94-11.64,15.47A65.16,65.16,0,0,0,101,378.64c-.08.36-.65.26-.56-.1,0,0,0-.05,0-.08s0,0,0-.07c-.54-15.33.68-30.78,5.36-45.46A156.43,156.43,0,0,1,113.24,314c2.51-5.32,5.63-10.44,10-14.42,2.85-2.57,9-7.44,13.1-4.86C138.32,296,138.17,297.94,137.4,299.85Z" style="fill:#166765"></path><path d="M122,334.59a125.69,125.69,0,0,1-8.91,12.81c-1.48,1.94-3,3.86-4.47,5.8-.7.91-1.48,1.83-2.13,2.81.41-1.61.8-3.23,1.22-4.84,2-7.74,3.87-15.55,6.82-23a155.63,155.63,0,0,1,10.64-20.86c.11-.18-.18-.31-.29-.13-3.23,5.32-6.52,10.64-9.24,16.26a84.68,84.68,0,0,0-3.93,9.64,147.1,147.1,0,0,1,5.23-20.61.05.05,0,0,0-.1,0,70.74,70.74,0,0,0-5.42,21.44v0q-1,3-1.84,6c-2.42,8.57-4.54,17.24-6.5,25.93a91.94,91.94,0,0,1,1.48-17c0-.13-.17-.16-.21,0a54.33,54.33,0,0,0-1.48,18q-1.11,5-2.17,9.93c-1.5,7.07-3.36,14.26-4.24,21.43a.15.15,0,0,0,.29.05c1-3.87,1.68-7.88,2.54-11.79s1.75-7.85,2.67-11.77q2-8.55,4.14-17.07c1-2.08,2.79-3.93,4.16-5.68,1.51-1.91,3-3.83,4.49-5.78a86.73,86.73,0,0,0,7.37-11.41C122.18,334.57,122.05,334.51,122,334.59Z" style="fill:#263238"></path><path d="M122.65,328a80,80,0,0,0-8.71,13.85c0,.06.06.13.1.07,2.94-4.6,5.82-9.23,8.75-13.83C122.84,328.05,122.71,328,122.65,328Z" style="fill:#263238"></path><path d="M57.41,314.38c2,3.42,4.25,7.53,3.4,11.64-.54,2.6-2.45,4.71-2.79,7.36-.77,5.85,5.07,9.72,9.29,12.49,10.52,6.9,25,13.06,26.87,27.16.07.5.94.38.87-.11a.36.36,0,0,0,0-.1s0,0,0-.08a53.88,53.88,0,0,0-.19-21.54c-1.57-7.27-4.75-13.8-8.49-20.18-6.33-10.81-13-21.87-22.62-30.15-2.65-2.29-8.08-6.4-10.19-1.24S55,310.21,57.41,314.38Z" style="fill:#166765"></path><path d="M67,337.29c7,7.55,18.07,11.79,24.08,20.25a84.68,84.68,0,0,0-18.51-34.76.28.28,0,0,1,.39-.39A68.5,68.5,0,0,1,88.12,344.3a97.83,97.83,0,0,0-6.51-16.66.18.18,0,0,1,.31-.18,63.78,63.78,0,0,1,7,18.72c7.91,19.16,8.64,41.63,7,61.83,0,.28-.46.29-.45,0,.45-15.92.2-32.11-3.62-47.65-.08-.33-.17-.65-.25-1-6.53-9.11-17.58-13.33-24.68-22C66.85,337.33,67,337.21,67,337.29Z" style="fill:#263238"></path><path d="M65.42,330.8c3.67,3.36,7.27,6.8,10.94,10.16,0,0,0,.1,0,.07A53.72,53.72,0,0,1,65.2,331C65.08,330.87,65.27,330.66,65.42,330.8Z" style="fill:#263238"></path><path d="M64.84,316.24a116.47,116.47,0,0,0,11,15.08.06.06,0,0,1-.09.09,53.12,53.12,0,0,1-11.06-15.05C64.59,316.23,64.77,316.12,64.84,316.24Z" style="fill:#263238"></path><polygon points="81.34 422.25 113.42 422.25 109.1 379.08 86.28 379.08 81.34 422.25" style="fill:#455a64"></polygon><polygon points="85.47 386.1 109.8 386.1 109.1 379.08 86.28 379.08 85.47 386.1" style="fill:#263238"></polygon><rect x="82.34" y="374.3" width="30.08" height="6.89" transform="translate(194.76 755.49) rotate(180)" style="fill:#455a64"></rect></g><g id="freepik--Character--inject-72"><path d="M566.5,445.79c2.25.7,66-.67,68.42-2.26.91-.59,1.25-9.9,1.34-21.14,0-2.43,0-4.93,0-7.49,0-3,0-6.07-.06-9-.17-13.32-.57-25-.57-25l-41.52.77.49,25,.17,9,.36,7.48S571,434.6,568.53,436.62,564.26,445.1,566.5,445.79Z" style="fill:#ad6359"></path><path d="M566.5,445.79c2.25.7,66-.67,68.42-2.26.91-.59,1.25-9.9,1.34-21.14,0-2.43,0-4.93,0-7.49,0-3,0-6.07-.06-9l-41.6.77.17,9,.36,7.48S571,434.6,568.53,436.62,564.26,445.1,566.5,445.79Z" style="fill:#fff"></path><path d="M566.31,445.89c1.46.45,28.63,0,48.4-.73,4.57-.19,8.76-.39,12.13-.6,4.65-.3,7.77-.61,8.27-.94,1.11-.75,1.39-14.4,1.38-28.79l-41.72.77.35,7.52s-24.32,11.51-26.78,13.54S564.06,445.18,566.31,445.89Z" style="fill:#a6a6a6"></path><path d="M567.17,443.3c10.75-.49,54.13-1.47,64.79-1.14.08,0,.08.06,0,.06-10.64.73-54,1.35-64.78,1.26C567,443.48,567,443.31,567.17,443.3Z" style="fill:#263238"></path><path d="M593.55,420.76c4.21-.88,9.4-.34,12.7,2.61.13.11,0,.29-.18.25a59.42,59.42,0,0,0-12.49-2.32A.27.27,0,0,1,593.55,420.76Z" style="fill:#263238"></path><path d="M590.54,422.67c4.21-.88,9.4-.34,12.69,2.6.13.12,0,.3-.17.26a59.53,59.53,0,0,0-12.5-2.33A.27.27,0,0,1,590.54,422.67Z" style="fill:#263238"></path><path d="M587.52,424.58c4.22-.88,9.4-.35,12.7,2.6.13.11,0,.29-.17.25a59.63,59.63,0,0,0-12.5-2.32A.27.27,0,0,1,587.52,424.58Z" style="fill:#263238"></path><path d="M584.51,426.48c4.21-.88,9.4-.34,12.7,2.6.12.12,0,.3-.18.26A59.56,59.56,0,0,0,584.54,427,.27.27,0,0,1,584.51,426.48Z" style="fill:#263238"></path><path d="M599,445.66c5.37-.14,10.8-.32,15.76-.51,4.57-.17,8.76-.38,12.13-.59,4.65-.3,7.77-.61,8.27-.95,1-.65,1.31-11.19,1.36-23.47C627,426.47,608.41,439.18,599,445.66Z" style="fill:#263238"></path><path d="M591.05,422.63l47.38.05s-2.6-106.65-2.09-109.14c1.22-5.93,28.17-100,28.17-100l-37.42.65-10.06.22s-1.61,15.66-2.06,17.32c-6.25,22.81-18.46,61.76-21,76.2C589.7,333,591.05,422.63,591.05,422.63Z" style="fill:#37474f"></path><path d="M592.58,414.72c7.39-.19,33.57-1,43.43-.24a.07.07,0,0,1,0,.14c-3.38.55-36,.4-43.43.3A.1.1,0,1,1,592.58,414.72Z" style="fill:#263238"></path><path d="M632.62,311.19c1.42-5.77,12-41.68,15.2-53s6.25-22.74,9-34.19c.35-1.45.71-2.9,1.1-4.34,0-.13.2-.07.18.05-1.06,5.77-2.47,11.48-3.83,17.19s-2.8,11.39-4.32,17.06Q645.4,271,640,287.86c-1.81,5.59-4.79,17.07-6.37,22.73s1,98.54.84,100a.34.34,0,0,1-.68,0C633.57,399.68,631.23,316.88,632.62,311.19Z" style="fill:#263238"></path><path d="M627.09,214.22s9.15,99.8,9.25,99.32c1.18-5.74,26.5-94.16,28.1-99.69,0-.18.07-.27.07-.27Z" style="fill:#263238"></path><path d="M614.26,451.25c2.25.7,66-.66,68.42-2.25.91-.59,1.25-9.9,1.35-21.15,0-2.43,0-4.93,0-7.48,0-3,0-6.07-.06-9-.16-13.32-.57-25.05-.57-25.05l-41.51.77.48,25.05.18,9,.35,7.48s-24.18,11.45-26.62,13.48S612,450.56,614.26,451.25Z" style="fill:#ad6359"></path><path d="M614.26,451.25c2.25.7,66-.66,68.42-2.25.91-.59,1.25-9.9,1.35-21.15,0-2.43,0-4.93,0-7.48,0-3,0-6.07-.06-9l-41.6.77.18,9,.35,7.48s-24.18,11.45-26.62,13.48S612,450.56,614.26,451.25Z" style="fill:#fff"></path><path d="M614.07,451.35c1.46.45,28.63,0,48.4-.73,4.57-.18,8.76-.38,12.13-.59,4.65-.3,7.77-.62,8.27-.95,1.11-.74,1.39-14.39,1.38-28.79l-41.72.78.35,7.51s-24.31,11.51-26.78,13.55S611.82,450.64,614.07,451.35Z" style="fill:#a6a6a6"></path><path d="M614.94,448.77c10.74-.5,54.12-1.47,64.78-1.15.08,0,.09.06,0,.07-10.64.72-54,1.35-64.78,1.25C614.71,448.94,614.71,448.78,614.94,448.77Z" style="fill:#263238"></path><path d="M641.31,426.23c4.22-.88,9.4-.34,12.7,2.6.13.12,0,.3-.17.26a59.65,59.65,0,0,0-12.5-2.33A.27.27,0,0,1,641.31,426.23Z" style="fill:#263238"></path><path d="M638.3,428.14c4.21-.88,9.4-.35,12.7,2.6.12.11,0,.29-.18.25a60.19,60.19,0,0,0-12.49-2.32A.27.27,0,0,1,638.3,428.14Z" style="fill:#263238"></path><path d="M635.28,430c4.22-.88,9.4-.34,12.7,2.6.13.12,0,.3-.17.26a58.88,58.88,0,0,0-12.5-2.32A.27.27,0,0,1,635.28,430Z" style="fill:#263238"></path><path d="M632.27,432c4.21-.88,9.4-.34,12.7,2.6.13.11,0,.29-.18.25a60.07,60.07,0,0,0-12.49-2.32A.27.27,0,0,1,632.27,432Z" style="fill:#263238"></path><path d="M635.31,422.6c3.05,2.26,7,3.13,10.48,4.35a.52.52,0,0,0,.65-.55.11.11,0,0,0,.1-.15,22.59,22.59,0,0,0-6.72-9.55c-1.8-1.45-4.92-2.41-6.53-.09S633.54,421.28,635.31,422.6Zm-1.15-3.38c-.84-4.63,4.19-2.3,5.48-1.18a24.54,24.54,0,0,1,2.29,2.38,68.1,68.1,0,0,1,4.05,5.49c-1.69-.71-3.43-1.26-5.15-1.9C638.79,423.24,634.63,421.77,634.16,419.22Z" style="fill:#263238"></path><path d="M660.52,419.5c-1.08-2.61-4.33-2.34-6.39-1.31a22.62,22.62,0,0,0-8.61,7.89.12.12,0,0,0,.06.18c-.06.31.14.71.52.66,3.7-.43,7.71-.44,11.17-2C659.28,424,661.54,422,660.52,419.5Zm-8.94,5.61c-1.82.26-3.63.43-5.44.76a66.31,66.31,0,0,1,5.13-4.5,25.25,25.25,0,0,1,2.75-1.83c1.49-.82,6.91-2,5.09,2.32C658.11,424.25,653.74,424.8,651.58,425.11Z" style="fill:#263238"></path><path d="M641.49,427.46l46-.85S674.56,260.8,676.16,252c2.63-14.38-.26-27.5-4.08-38.59l-47.24.83s-.66,12.59,4.1,20c0,0,4.25,2.57,6.32,3.71Z" style="fill:#37474f"></path><path d="M642.76,419.3c7-.31,5-.32,11.94-.55,3.41-.12,25.84-.85,29-.4a.08.08,0,0,1,0,.15c-3.18.6-25.62.94-29,1-7,.1-5,0-12,0A.1.1,0,1,1,642.76,419.3Z" style="fill:#263238"></path><path d="M626.11,232.3a85.37,85.37,0,0,1,12.73,7.23.14.14,0,0,1-.14.25c-4.31-2.28-8.71-4.48-12.88-7C625.49,232.6,625.77,232.15,626.11,232.3Z" style="fill:#263238"></path><path d="M631.81,231.55a19.94,19.94,0,0,1,.65,2.64,5.71,5.71,0,0,1,.18,2.13c0,.13-.22.13-.29,0a7.46,7.46,0,0,1-.73-2.13c-.23-.82-.48-1.63-.68-2.45C630.8,231.22,631.63,231,631.81,231.55Z" style="fill:#263238"></path><path d="M632.13,227.23c-.14-.75-.27-1.49-.42-2.24s-.36-1.53-.45-2.31c0-.12-.22-.08-.19,0,.13.75.15,1.52.23,2.28s.16,1.51.25,2.27c.17,1.4.43,2.82.74,4.21a5,5,0,0,1-2.08-.82,4,4,0,0,1-1.14-2.13c-.23-.85-.44-1.71-.68-2.56a15.74,15.74,0,0,1-.71-2.86c0-.12-.21-.08-.19,0a30.39,30.39,0,0,0,1.25,6,3.28,3.28,0,0,0,1.16,2,6.33,6.33,0,0,0,2.52.7c.1,0,.25,0,.24-.12A44.71,44.71,0,0,0,632.13,227.23Z" style="fill:#263238"></path><path d="M668.88,251.57c.26-3.3.73-6.57,1-9.87.6-6.63-.45-13.14-1.56-19.69-.25-1.52.45-.75.48-.63a77.54,77.54,0,0,1,1.79,17.85c-.18,5.81-1.1,11.56-1.08,17.38s.58,11.78,1.07,17.65L672.08,292c2,23.74,3.82,47.49,5.7,71.23.53,6.63,1,13.26,1.54,19.89s1.29,23.39,1.67,30.14c0,.59-.84.56-.9,0-1.23-11.91-2.22-33.77-3.2-45.7s-1.89-23.62-2.83-35.43-1.87-23.63-2.79-35.44q-.69-8.87-1.35-17.72c-.45-5.88-1-11.77-1.19-17.67A85,85,0,0,1,668.88,251.57Z" style="fill:#263238"></path><path d="M652.46,221.89a.1.1,0,0,1,.18,0,7.94,7.94,0,0,1,.47,2.41,16.67,16.67,0,0,0,.66,2.59,10.39,10.39,0,0,0,2.77,4.47c2.87,2.58,6.66,3.49,10.32,4.31a.12.12,0,0,1,0,.23,16.45,16.45,0,0,1-6.37-.87,13.29,13.29,0,0,1-5-2.66,9.14,9.14,0,0,1-2.73-4.74,15.65,15.65,0,0,1-.36-2.89c0-.47,0-.94,0-1.41A3.75,3.75,0,0,1,652.46,221.89Z" style="fill:#263238"></path><path d="M638.27,156.93c-3.56,9.56-21,43.9-31.58,45.49-7.53,1.13-35.6-5.39-41.91-8.85-3.59-2,6.55-23.11,11.43-22.21,6,1.12,23,6.44,26.64,6,1.94-.24,12.35-11.37,27.21-26.28C637.7,143.41,641.35,148.67,638.27,156.93Z" style="fill:#ad6359"></path><path d="M563,165.14c-3.94-.18-8.45-.7-12.38.57s-5.64,7.48-5.18,9,4.76,10.37,8.72,9.17-.6-7.64-.7-8.5-.27-2,.5-2.11,15.7,2.09,15.7,2.09Z" style="fill:#ad6359"></path><path d="M562.89,165.76c-.22.07-12.09-.9-16,.37s-5.63,7.48-5.18,9,4.76,10.37,8.72,9.17-.6-7.64-.7-8.5-.27-2,.5-2.11,15.7,2.09,15.7,2.09Z" style="fill:#ad6359"></path><path d="M551.6,183.37a4.83,4.83,0,0,0-.05-2.53,8.4,8.4,0,0,0-.91-2.48,14,14,0,0,1-1.13-2,4.56,4.56,0,0,1-.09-2.26c.14-.65.78-.63,1.33-.61a22.49,22.49,0,0,1,2.45.32l2.6.47a22.41,22.41,0,0,1,2.68.57c.06,0,.06.13,0,.12a22.2,22.2,0,0,1-2.28-.29c-.86-.13-1.71-.25-2.57-.35s-1.61-.25-2.41-.33a2.32,2.32,0,0,0-1.14,0c-.28.16-.2.94-.2,1.21a3.82,3.82,0,0,0,.79,2.09,12.05,12.05,0,0,1,1.06,2,5.88,5.88,0,0,1,.46,2.11,8.55,8.55,0,0,1-.43,2C551.72,183.51,551.57,183.46,551.6,183.37Z" style="fill:#263238"></path><path d="M578.58,172.35s-14-6.67-16.87-8c-5.78-2.59-27.44-4.64-30.21-4.11s-2.08,6.33,12.74,8.09c7.8.93,10.23,4.51,10.76,6.74s-.33,6.94-4,8-7.72-3.64-11.29-3.21.55,6,4,8.81a23.57,23.57,0,0,0,12.24,4.73c3.55.23,14.69,1.5,14.69,1.5Z" style="fill:#ad6359"></path><path d="M545.61,181.85c1.71.65,3.7,1.57,5.55,1.09s2.76-2.1,3.17-3.9a7.32,7.32,0,0,0-.57-5.38,8.9,8.9,0,0,0-3.77-3.37,21.67,21.67,0,0,0-6-1.81c-.09,0,0-.15,0-.14,1.92.24,7.85.81,10.31,5.14a7.47,7.47,0,0,1,.54,5.5c-.37,1.71-1.13,3.48-2.87,4.17-2.12.83-4.53-.37-6.49-1.22C545.43,181.9,545.52,181.81,545.61,181.85Z" style="fill:#263238"></path><path d="M579.86,171.45,569.3,197.33s28.13,7.81,39.48,5.47c8.46-1.74,24.73-31.37,30-44.61s-3-13.69-9.89-6.88S604.15,176.12,603,176.49C602.12,176.75,579.86,171.45,579.86,171.45Z" style="fill:#166765"></path><polygon points="567.94 198.93 574.67 201.12 584.82 170.94 578.52 168.39 567.94 198.93" style="fill:#166765"></polygon><path d="M580.06,186.15c.66-2.11,1.31-4.21,1.94-6.32s1.34-4.21,1.83-6.34c0-.1-.11-.16-.15-.06-.82,2-1.44,4-2.13,6s-1.43,4.27-2.14,6.4c-1.39,4.23-2.63,8.5-3.8,12.79,0,.11.11.13.14,0C577.28,194.53,578.74,190.37,580.06,186.15Z" style="fill:#263238"></path><path d="M638.77,158.19c-5.25,13.24-21.53,42.87-30,44.62a37.75,37.75,0,0,1-10.14.2l40.15-55.59C640.74,148.57,641.24,152,638.77,158.19Z" style="opacity:0.1"></path><path d="M615.25,220.16c1.52,1.21,60.29.69,60.54.26S668,165,650.48,150.1c-5.05-4.29-14.62-3.95-18.08.92C624.26,162.45,614.29,219.4,615.25,220.16Z" style="fill:#ebebeb"></path><path d="M647.23,147.51s-2.38,17.78-2.82,24.2c-.13,1.81,2.6,53.3,2.6,53.3l30.38-4.1s-6.92-33.78-12.88-48.49S651.78,149.23,647.23,147.51Z" style="fill:#166765"></path><path d="M634.34,148.63s-4,20.67-4.27,23.08-5.26,53.3-5.26,53.3l-11.27-4.1s9.2-47.29,14-60.25C630.75,151.74,634.34,148.63,634.34,148.63Z" style="fill:#166765"></path><rect x="605.04" y="182.72" width="39.62" height="51.58" transform="translate(-32.43 252) rotate(-22.24)" style="fill:#455a64"></rect><rect x="605.93" y="181.91" width="18.78" height="5.69" transform="translate(-24.22 245.9) rotate(-22.17)" style="fill:#c7c7c7"></rect><polygon points="618.99 180.19 616.85 181.06 615.86 178.63 610.65 180.75 611.64 183.18 609.5 184.06 607.7 179.63 617.21 175.75 618.99 180.19" style="fill:#c7c7c7"></polygon><path d="M656.26,153.9c18.19,15.71,33.46,42.49,31.27,51.3-1.58,6.37-31.47,17-49,22.76-3.24,1.06-8.57-26.64-5-27.55,6.32-1.63,25.93-10.36,26.35-10.5.9-.3-8-17.64-12.87-29.22C640.74,145.91,648.12,146.87,656.26,153.9Z" style="fill:#ad6359"></path><path d="M601,211.56a4.25,4.25,0,0,0,2.64,4.06,6.29,6.29,0,0,0-1.17,4.11c.3,2.57,4.47,3.23,4.47,3.23a7.78,7.78,0,0,0-.55,4.53c.54,2.43,4.65,3.69,4.65,3.69a6.78,6.78,0,0,0,2,4.29c3.25,2.92,9.65,1.08,13.74-.06s14.61-8.16,16.75-9.3l-7-26.28s-19.76-.14-24.38,1.87C608.23,203.4,601.19,208.26,601,211.56Z" style="fill:#ad6359"></path><path d="M603.61,215.5c3.7-2.8,8-4.34,12.26-6.13.09,0,.15.11.06.14-4.23,1.74-8.06,4.28-12.2,6.18C603.61,215.74,603.51,215.57,603.61,215.5Z" style="fill:#263238"></path><path d="M606.85,222.86a12,12,0,0,1,2.88-1.28c1.06-.39,2.11-.75,3.18-1.1,2.13-.7,4.27-1.35,6.44-1.94.1,0,.16.11.06.14-2.12.71-4.23,1.44-6.32,2.23-1.05.39-2.09.8-3.13,1.21a14.57,14.57,0,0,1-3,1A.16.16,0,0,1,606.85,222.86Z" style="fill:#263238"></path><path d="M611.09,231.15a8.49,8.49,0,0,1,2.66-1l2.92-.91c2-.62,3.9-1.24,5.82-1.93.1,0,.16.12.06.15-1.95.71-3.89,1.44-5.85,2.13-1,.34-1.92.68-2.89,1a7.73,7.73,0,0,1-2.7.68C611.06,231.25,611.05,231.18,611.09,231.15Z" style="fill:#263238"></path><path d="M635.83,199l10.32,27.25s38.31-13,41.89-19.77-11.1-34.19-28.68-50.67c-9.64-9-20.08-12.85-12.21,6.75S659,189,659,189.29,635.83,199,635.83,199Z" style="fill:#166765"></path><polygon points="643.75 228.45 650.29 225.74 638.37 196.22 631.93 198.37 643.75 228.45" style="fill:#166765"></polygon><path d="M644.65,210.86q-1.3-3-2.64-6.06c-.88-2-1.71-4.07-2.73-6a.09.09,0,0,0-.16.06c.66,2,1.52,4,2.31,6s1.69,4.17,2.54,6.26c1.69,4.12,3.53,8.16,5.43,12.18,0,.1.17,0,.13-.07C648,219,646.4,214.92,644.65,210.86Z" style="fill:#263238"></path><path d="M661,188.56c-.63.15-1.25.32-1.87.51a91.16,91.16,0,0,0-4.33-10c-1.63-3.35-3.27-6.71-5-10a0,0,0,1,0-.06,0c.89,2.18,1.81,4.34,2.73,6.5-.62-1-1.21-2-1.78-3,0-.07-.16,0-.13.07a21.93,21.93,0,0,0,1.56,2.8c.25.37.51.73.77,1.1l1.26,2.91a92.18,92.18,0,0,0,4.74,9.68,91.35,91.35,0,0,0-9.12,3.52,106.9,106.9,0,0,0-10.74,5s-.31-1.69-.58-1.85-5.4,1.72-6.95,2.46a20.59,20.59,0,0,0,1.1,2.11.08.08,0,1,0,.15-.06c-.22-.68-.43-1-.72-1.76,1-.34,5.86-2.13,6.12-2.18a10,10,0,0,0,.81,1.59s7.43-3.11,11.09-4.63q2.72-1.12,5.45-2.2c1.87-.74,3.76-1.41,5.57-2.29C661.2,188.8,661.16,188.52,661,188.56Z" style="fill:#263238"></path><path d="M650,225l6.57-2.51c2.19-.83,4.38-1.63,6.55-2.51s4.36-1.71,6.51-2.62,4.29-1.85,6.38-2.92a47.46,47.46,0,0,1-6.15,3.45c-2.11,1-4.29,1.91-6.47,2.79s-4.4,1.63-6.63,2.36S652.28,224.45,650,225Z" style="fill:#263238"></path><path d="M635,159.53c3.42.74,9.13-4.23,11.36-8.49.15-.29-.35-3.33-.79-7.06-.25-2.26-.48-4.78-.52-7.1,0-.47-14.47,3.81-14.47,3.81a36.9,36.9,0,0,1,1.57,8.87,4.81,4.81,0,0,1-.08.95s0,.1,0,.16C631.8,152.48,631.7,158.81,635,159.53Z" style="fill:#ad6359"></path><path d="M644.16,137c-.6,3.93-2.86,13.44-10.61,13.76a7.86,7.86,0,0,1-1.48-.05.81.81,0,0,1,0-.16,7,7,0,0,0,.09-.95,37.1,37.1,0,0,0-1.58-8.87S641,137.6,644.16,137Z" style="fill:#263238"></path><path d="M645.75,119.33c1.81,5.07-.21,20.07-3.72,23.56-5.08,5.05-13.75,5.92-18.13-.27-4.25-6-1.27-25.5,2.68-28.7C632.4,109.2,643.07,111.83,645.75,119.33Z" style="fill:#ad6359"></path><path d="M646.22,128.87c-.53,5.73-2.09,11.94-4.19,14-5.08,5.05-13.74,5.92-18.13-.27-1.57-2.21-2.15-6.25-2.06-10.63,0,.2.75,3.38,2.59,3.66a2.55,2.55,0,0,0,2.66-1.38l1.22-.28a8.8,8.8,0,0,0,6.06,1.38,9.48,9.48,0,0,0,7.22-4.18c1.14-1.8,1.08-2.49,1.08-2.49Z" style="fill:#263238;opacity:0.2"></path><path d="M632.27,129.15s.07,0,.07.1c-.17,1-.18,2.18.69,2.64a0,0,0,1,1,0,.05C631.92,131.64,632,130.07,632.27,129.15Z" style="fill:#263238"></path><path d="M633.31,128.21c1.64.09,1.35,3.36-.17,3.28S631.94,128.13,633.31,128.21Z" style="fill:#263238"></path><path d="M626.44,128.61s-.08,0-.09.09c-.06,1-.29,2.17-1.24,2.42,0,0,0,.06,0,.06C626.24,131.13,626.55,129.59,626.44,128.61Z" style="fill:#263238"></path><path d="M625.63,127.47c-1.62-.27-2,3-.54,3.24S627,127.7,625.63,127.47Z" style="fill:#263238"></path><path d="M634.74,126.83c-.44-.16-.81-.37-1.23-.57a2.14,2.14,0,0,1-1.14-.81.71.71,0,0,1,.18-.83,1.74,1.74,0,0,1,1.75,0,2.56,2.56,0,0,1,1.36,1.23A.74.74,0,0,1,634.74,126.83Z" style="fill:#263238"></path><path d="M624.51,125.71c.46,0,.88-.14,1.33-.22a2.14,2.14,0,0,0,1.32-.49.7.7,0,0,0,0-.85,1.72,1.72,0,0,0-1.68-.47,2.52,2.52,0,0,0-1.63.82A.74.74,0,0,0,624.51,125.71Z" style="fill:#263238"></path><path d="M632,138.65c-.26.22-.53.52-.91.52a2.57,2.57,0,0,1-1.06-.36s-.07,0-.05.05a1.36,1.36,0,0,0,1.24.67,1.1,1.1,0,0,0,.88-.83S632,138.62,632,138.65Z" style="fill:#263238"></path><path d="M631.16,135.51a3.47,3.47,0,0,1-2.45,1.33,4.39,4.39,0,0,1-1.25-.05l-.23,0-.22-.05a.26.26,0,0,1-.18-.25h0a.44.44,0,0,1,0-.1h0v-.09c0-.78.23-2,.23-2-.3.11-1.81.64-1.75.23a52.1,52.1,0,0,1,2.28-10.34.09.09,0,0,1,.18,0c-.35,3.26-1.28,6.42-1.7,9.68a6.47,6.47,0,0,1,1.68-.35c.11,0-.4,2.28-.39,2.63v0a4.78,4.78,0,0,0,3.68-.79C631.15,135.36,631.23,135.44,631.16,135.51Z" style="fill:#263238"></path><path d="M628.19,136.46a3.86,3.86,0,0,0,1.49,1.27,1.81,1.81,0,0,0,1.06.11c.77-.17.82-.87.71-1.48a4.22,4.22,0,0,0-.3-.93A5,5,0,0,1,628.19,136.46Z" style="fill:#263238"></path><path d="M629.68,137.73a1.81,1.81,0,0,0,1.06.11c.77-.17.82-.87.71-1.48A1.82,1.82,0,0,0,629.68,137.73Z" style="fill:#ff9abb"></path><g style="opacity:0.2"><path d="M630.2,121.6a12.17,12.17,0,0,1-1.71.05c-.57,0-1.13-.2-1.71-.23a9.48,9.48,0,0,0-3.22.55c-.09,0-.08.09,0,.07a8.21,8.21,0,0,1,3.41-.33,10.25,10.25,0,0,0,2.82.17,10.16,10.16,0,0,1,6.24.91s0,0,0,0A10.34,10.34,0,0,0,630.2,121.6Z"></path><path d="M630.3,120.07a11,11,0,0,1-1.62.05c-.55,0-1.08-.19-1.63-.22a9,9,0,0,0-3,.53c-.08,0-.07.08,0,.06a7.48,7.48,0,0,1,3.22-.31,9.65,9.65,0,0,0,2.68.16,9.66,9.66,0,0,1,5.92.86s0,0,0,0A9.78,9.78,0,0,0,630.3,120.07Z"></path></g><path d="M645.37,131.43s4.48-8.87,3.63-13.73c-.38-2.2-3.52-3.46-3.52-3.46a5,5,0,0,0-2-4.91c-2.81-2.27-9.1-1.23-9.1-1.23s-4.57-5.63-10.2-2.83-1.35,9.1-1.35,9.1-1.9,3.19,3.49,5.16,15.45-1.13,15.45-1.13a36.32,36.32,0,0,0,1,10.73A3.32,3.32,0,0,0,645.37,131.43Z" style="fill:#263238"></path><path d="M633.42,108.25a10.43,10.43,0,0,1,4-1.06,11.14,11.14,0,0,1,3.73.3,6.1,6.1,0,0,1,4.65,4.26,4.25,4.25,0,0,1-.56,3.28s-.09,0-.06,0c1.22-1.77.31-4.31-1.18-5.59a9.2,9.2,0,0,0-6.31-1.8,17.59,17.59,0,0,0-4.25.78A.07.07,0,0,1,633.42,108.25Z" style="fill:#263238"></path><path d="M620.27,108.39a5,5,0,0,1,3.21-3.43,8.49,8.49,0,0,1,5.52-.23,10.69,10.69,0,0,1,4.75,3s0,.08,0,0a9.42,9.42,0,0,0-9.25-2.66,4.6,4.6,0,0,0-3.07,7.13,9.69,9.69,0,0,0,4,3.47s0,.07,0,0a9.93,9.93,0,0,1-4-2.89A5.59,5.59,0,0,1,620.27,108.39Z" style="fill:#263238"></path><path d="M625.12,119.91a17.71,17.71,0,0,0,7.41.71,36.08,36.08,0,0,0,7.62-1.64c1.44-.47,2.87-1,4.28-1.54.05,0,.07,0,0,.07a38.79,38.79,0,0,1-7.69,3,19.72,19.72,0,0,1-7.61.51A16.81,16.81,0,0,1,625.1,120S625.09,119.89,625.12,119.91Z" style="fill:#263238"></path><path d="M643.14,131.6s3.23-4.91,5.45-3.76-.13,8.18-2.67,9.2a2.61,2.61,0,0,1-3.53-1.3Z" style="fill:#ad6359"></path><path d="M647.87,129.84s0,0,0,.07c-1.77.77-2.68,2.46-3.29,4.21a1.44,1.44,0,0,1,2.14-.45s0,.11-.05.1a1.61,1.61,0,0,0-1.75.6,7.87,7.87,0,0,0-.8,1.45c-.08.17-.37.09-.32-.1v0C643.72,133.39,645.41,130.13,647.87,129.84Z" style="fill:#263238"></path><path d="M632.16,149.68l4.71,8,8.91-12.36,3.52,3s-7.71,18.65-7.89,17.89l-4.62-6.79-4.27,5.87L631,152.4Z" style="fill:#ebebeb"></path><path d="M631.39,158.94c-.18-2.13-.43-4.27-.51-6.4a.07.07,0,0,1,.14,0c.73,2,1.39,10.11,1.7,12.05l0,0c.17-.25,4-5.2,4-5.14.93,1.05,4.32,6,4.57,6.44,1.22-3,6.51-14.71,8-17.57a.07.07,0,1,1,.13.06c-1,3.08-7.79,18.56-7.92,18.54a82.6,82.6,0,0,1-4.85-7.18c-.61,1.05-4.39,6.54-4.45,6.23A68,68,0,0,1,631.39,158.94Z" style="fill:#263238"></path></g><g id="freepik--speech-bubble--inject-72"><path d="M609,111.63a11.92,11.92,0,0,0,2-6.6c0-8.36-9.18-15.14-20.5-15.14S570,96.67,570,105s9.17,15.15,20.5,15.15A24.61,24.61,0,0,0,604.64,116l7.06,1.79Z" style="fill:#fffefd"></path><path d="M609,111.63a12.22,12.22,0,0,0,1.92-6.24,11.8,11.8,0,0,0-1.74-6.24,18.59,18.59,0,0,0-10.35-7.59,27.41,27.41,0,0,0-12.94-.82,21.43,21.43,0,0,0-11.5,5.66,13.13,13.13,0,0,0-3.34,5.4,10.8,10.8,0,0,0-.09,6.27,13.19,13.19,0,0,0,3.26,5.45,19.27,19.27,0,0,0,5.25,3.77,23.68,23.68,0,0,0,6.2,2,26.86,26.86,0,0,0,6.52.46,24.09,24.09,0,0,0,12.36-4l.09-.06.1,0,7,1.91-.14.16Zm0,0,2.85,6.1.11.23-.25-.06-7.09-1.69.19,0a24.33,24.33,0,0,1-12.58,4.31,26.25,26.25,0,0,1-13.14-2.4,19.83,19.83,0,0,1-5.53-3.91,14.27,14.27,0,0,1-3.53-5.83,11.81,11.81,0,0,1,.06-6.84,14.43,14.43,0,0,1,3.62-5.78,22.29,22.29,0,0,1,12-5.84,26.91,26.91,0,0,1,13.32,1A21.66,21.66,0,0,1,605,94a16.12,16.12,0,0,1,4.52,5,11.69,11.69,0,0,1-.55,12.7Z" style="fill:#263238"></path><path d="M583.12,105a2.13,2.13,0,1,1-2.12-2.12A2.12,2.12,0,0,1,583.12,105Z" style="fill:#263238"></path><path d="M592.62,105a2.13,2.13,0,1,1-2.12-2.12A2.12,2.12,0,0,1,592.62,105Z" style="fill:#263238"></path><path d="M602.13,105a2.13,2.13,0,1,1-2.13-2.12A2.13,2.13,0,0,1,602.13,105Z" style="fill:#263238"></path></g></svg>