<?xml version="1.0" encoding="UTF-8"?><svg id="a" xmlns="http://www.w3.org/2000/svg" viewBox="0 0 138.8 175.5"><defs><style>.b{fill:#fb5e93;}.c,.d{fill:#fff;}.e{fill:#0eb770;}.e,.f,.d{fill-rule:evenodd;}.f{fill:#141915;}</style></defs><path class="e" d="M108.32,152.12c-.14,5.73-2.01,8.31-2.01,8.31-5.3,8.45-16.33,8.16-16.33,8.16l-10.46,.43H40.01l-10.46-.14s-2.36,.09-5.43-.64c-7.22-1.74-12.49-8.09-12.9-15.51,0-.06,0-.11,0-.17-.14-3.58-.29-24.49-.29-39.24v-.29s-.43-48.55-.29-54.28,2.01-8.31,2.01-8.31c5.3-8.59,16.33-8.31,16.33-8.31l10.46-.43,39.53-.86,10.46,.14s2.03-.08,4.78,.5c6.68,1.41,11.82,6.76,13.13,13.46,.14,.73,.29,1.52,.42,2.37,.9,5.52,.35,47.05,.6,54.74"/><g><path class="c" d="M108.27,102.14s.31,2.68-2.44,4.83c-.16,.13-.33,.25-.51,.38-4.69,3.5-13.72,10.25-18.48,13.97-.43,.29-1.43,1.58-1.57,.86,0-1.57,0-3.15,.14-4.73,0-.57,0-1.28-.14-1.86-.29-1.29-1-2.43-2.58-2.58-1.58,0-2.29,1.15-2.58,2.44-.57,2-.57,4.15-.71,6.16-.72,7.16-1.01,14.46-1.29,21.77,0,.57,0,1.29,.14,1.86-.14,1.72,.57,2.87,2.01,2.87,1.28,.14,2.43-.86,2.86-2.58,.57-2.29,.72-4.73,1-7.02,.15-2.15,.43-4.3,.58-6.73,1.71,1.72,3.58,3.01,5.44,4.29,3.44,2.01,10.17,3.73,11.31,.86,.43-1.43-.43-2.29-1.72-3-2.72-1.87-6.01-2.87-8.73-4.87-3.58-2.44-3.15-1.72,0-4.16,3.4-2.62,10.42-7.72,14.58-10.72l.02-.02s.05-.02,.08-.05c.29-.2,1.03-.63,1.79-.47,.87,.18,.89,2.12,.89,2.28,0,0,.65-2,.53-5.41-.24-6.68-.62-8.37-.62-8.37Z"/><polygon class="c" points="108.33 107.18 108.33 109 108.3 107.18 108.33 107.18"/><path class="c" d="M52.9,124.04c-.29-3.44-.29-6.87-2.15-10.03-2.29-4.3-7.3-4.87-10.6-1.29-1.15,1.29-2.01,2.72-2.72,4.15-2.86,6.02-4.3,12.17-5.59,18.62-.29,1.29-.86,7.16-.43,8.74,.29,1,.86,1.86,2.15,1.86,1.15,0,1.72-.72,2.15-1.58,.43-.72,.57-1.58,.72-2.43,.43-2.01,.72-4.15,1-6.16,.14-.72,.57-1.29,1.43-1.29,2.15-.14,4.3,0,6.45-.43,1.58-.29,1.86,.43,1.86,1.72,.29,3.87,0,18.33,1.29,21.48,.43,1,1.29,1.86,2.72,1.86,3.01-.14,2.86-7.45,2.58-9.88-.14-8.59-.57-17.04-.86-25.35Zm-7.16,3.87c-1.86,0-3.58,.43-5.3,.57-1.29,.14-.72-1.29-.72-1.58,1-3.15,2.01-6.45,3.58-9.45,.29-.57,.72-1.29,1.43-1.29,.72,.14,1.43,2.43,1.86,10.6,0,.72-.14,1.15-.86,1.15Z"/><path class="c" d="M64.5,110.01c-3.72,1.15-7.02,5.3-6.73,9.45,.29,3.29,1.15,6.3,2.86,9.31,1.72,3.01,3.87,5.16,5.73,8.16,2.01,3.01,2.86,5.87,2.15,9.31-.43,1.72-2.29,2.29-3.58,1.29-1-.86-1.43-2.01-2.01-3.15-.57-1.86-.57-4.01-.86-5.87-.43-1.29-.72-2.58-2.29-2.58-1.43,0-2.01,1.15-2.15,2.43-.43,3.29-.29,6.45,1.15,9.45,1.86,4.3,6.16,6.45,9.88,5.3,4.58-1.29,6.45-6.16,5.44-11.03-.72-4.73-3.29-8.31-6.45-11.89-2.15-2.43-3.87-5.01-4.58-8.31-.43-1.72-.86-3.44,.29-5.01,.57-.86,1.43-1.72,2.72-1.58s2.01,.86,2.43,2.01c.57,1.29,.57,2.58,.57,4.01-.14,1.58-.29,3.15,.14,4.73,.72,2.01,2.72,2.43,4.15,1,.57-.57,1-1.43,1.43-3.29,.43-3.01,.14-5.73-.72-8.45-1.29-3.87-5.73-6.3-9.6-5.3Z"/><path class="c" d="M95,82.37c-.86-1.72-2.86-1.58-3.72-.14-1,1.29-1.15,9.31-1.58,11.89-.14,1.15-.57,2.29-1,3.29-.72,1.15-1.58,1.15-2.58,.14-1.15-1.15-1.58-2.43-2.15-4.01-1.29-3.87-.72-7.88-.72-11.89,0-1.43-.29-2.72-2.01-3.15s-2.43,.86-3.01,2.29c-1.58,3.87-1.58,8.02-.72,12.17,.72,3.29,1.58,6.3,4.15,8.59,3.87,3.15,8.74,2.72,11.31-1.72,2.43-3.44,3.01-15.9,2.01-17.47Z"/><path class="c" d="M65.64,75.78c.57-.29,1.29-.43,2.01-.57h-.14c-.72,.14-1.29,.43-1.86,.57-3.72,1.86-5.59,4.73-6.45,8.31,.72-3.44,2.72-6.59,6.45-8.31Z"/><path class="c" d="M36,103.99c5.59,.72,11.03-2.86,12.75-8.31,1.43-4.73,.86-10.46-2.86-14.32l-2.29-2.72c.57-1.15,9.17-9.02,3.87-19.34-.14-.14-.29-.43-.43-.57-2.29-3.15-5.73-5.01-9.31-4.01-3.44,1-5.44,3.29-7.3,6.16-3.01,5.16-4.58,10.6-5.44,15.9-.72,4.44-1.58,8.16-.29,12.03,.14,1,1,2.15,2.01,2.15,1.15,0,2.43-.57,2.72-2.15,1-6.45,2.43-12.75,4.15-18.91,.72-2.58,1.58-5.01,3.29-7.3,.86-1.29,2.15-2.15,3.87-1.86,1.72,.57,2.29,1.86,2.86,3.44,.72,2.72-.43,5.01-1.72,7.3-1.29,2.43-3.44,3.87-5.87,5.01-2.15,1.29-2.15,2.72-.14,4.15,.72,.43,1.58,.86,2.29,1.43,4.15,2.86,5.59,6.73,4.3,11.46-1,3.87-4.58,5.16-7.88,3.01-1.29-.72-2.29-1.72-3.58-2.29-.72-.43-1.72-.57-2.58-.43-.57,.14-1.15,.29-1.72,.86-.86,.86-.72,1.86-.29,2.72,2.86,4.01,5.87,6.16,9.6,6.59Z"/><path class="c" d="M77.67,103.28c-4.3-3.87-9.02-6.73-13.61-10.46-.43-.29-1.15-.72-1-1.15,.14-.72,1-.72,1.58-.86,6.59-1.58,11.31-7.3,11.46-14.04,.14-2.15-.86-3.87-2.29-5.3-3.01-2.43-6.3-2.15-9.74-.72-3.44,1.43-4.87,3.15-5.3,3.72-.29-1.72-.43-3.01-.86-6.45-.14-1-.72-1.72-1.86-1.86-2.29-.14-2.58,2.43-2.58,3.01-.43,3.58-1,19.48-.86,23.92,.14,2.43,.29,5.01,1.15,7.45,.43,1,.86,1.58,1.86,1.58s1.58-.57,1.86-1.43c.43-1.15,.57-2.15,.72-3.44,.14-1,.43-1.43,1.43-.57,2.43,2.15,5.16,4.15,7.73,6.16,3.15,2.15,6.16,4.58,9.74,6.02,1.15,.43,2.15,.57,3.01-.57,.86-1,.57-2.01-.29-3.01-.57-.72-1.43-1.29-2.15-2.01Zm-18.05-17.19c-.72,0-.72-.43-.43-1.86,.72-3.58,2.72-6.59,6.3-8.31,.72-.29,1.29-.43,2.01-.57h.72c1.43,0,2.15,1.15,1.86,2.58-.14,1-.72,2.15-1.43,3.01-3.44,4.87-8.74,5.16-9.02,5.16Z"/></g><path class="f" d="M106.03,33.53c1.58,1.43,3.15,2.58,4.87,4.15-2.15,2.43-4.44,5.01-6.59,7.45-5.44,6.02-10.74,12.03-17.04,17.19-.43,.29-.86,.57-1.29,.72-1.15,.57-2.43,.43-3.29-.29-.86-1-.86-2.29-.14-3.44,2.15-2.58,4.58-4.87,6.87-7.45,2.86-3.29,6.02-6.45,8.88-9.74,2.86-2.72,5.3-5.59,7.73-8.59Z"/><circle class="b" cx="117.2" cy="23.79" r="15.61"/><path class="d" d="M107.47,23.93c.43-3.72,2.86-5.87,6.3-7.02,.57-.14,1.15-.29,1.72-.14,1,.14,2.01,.29,2.43,1.43,.43,1.15-.14,2.29-1,2.72-2.72,1.15-3.58,3.58-4.58,6.02-.43,1.29-1.15,2.58-2.86,2.29-1.29-.14-2.29-1.58-2.43-3.44,.14-.43,.29-1.15,.43-1.86Z"/><path class="d" d="M121.36,20.21c.14-1.43,1.15-1.86,2.29-1.72s1.72,1,1.58,2.01-.86,1.86-2.15,1.72c-1-.14-1.72-1-1.72-2.01Z"/><path class="c" d="M33.71,112.87c0,1.29-1.44,2.87-3.01,3.01-1.15,.29-2.29,.29-3.44,.29-.57,0-1,.14-1,.86v8.59c.14,5.73,0,11.31-.43,17.04,0,.86,0,1.72-.43,2.44-.43,1-1.29,1.86-2.58,1.72-1.14-.15-1.72-1.01-2-2.15-.29-1.86-.29-3.73-.29-5.59,0-7.3,0-14.46,.14-21.63,0-.85-.28-1.28-1.14-1.28h-2.44l-4.45,.2c-.51,.08-1.65,.41-1.69,1.88-.03,.99-.15-2.27-.15-5.05,0-2.52,.1-4.54,.1-4.54,0,0,.07,1.87,1.97,1.85,.09,0,.16,.01,.23,.02h0c5.23-.26,10.34-.39,15.44-.52,.72,0,1.43,0,2.15,.14,1.72,.14,3.01,1.43,3.01,2.72Z"/></svg>